<?xml version="1.0" standalone="no"?>
<!DOCTYPE svg PUBLIC "-//W3C//DTD SVG 20010904//EN"
 "http://www.w3.org/TR/2001/REC-SVG-20010904/DTD/svg10.dtd">
<svg version="1.0" xmlns="http://www.w3.org/2000/svg"
 width="512.000000pt" height="512.000000pt" viewBox="0 0 512.000000 512.000000"
 preserveAspectRatio="xMidYMid meet">

<g transform="translate(0.000000,512.000000) scale(0.100000,-0.100000)"
fill="#000000" stroke="none">
<path d="M1168 4935 c-6 -13 -41 -44 -77 -67 -138 -90 -184 -152 -184 -248 0
-96 46 -158 184 -248 111 -71 111 -109 1 -183 -142 -95 -185 -153 -185 -249 0
-96 46 -158 184 -248 36 -23 71 -54 77 -67 11 -24 16 -25 92 -25 l80 0 -7 33
c-15 80 -60 133 -185 216 -110 74 -110 112 1 183 138 90 184 152 184 248 0 96
-43 154 -185 249 -110 74 -110 112 1 183 121 79 169 134 184 216 l7 32 -80 0
c-76 0 -81 -1 -92 -25z"/>
<path d="M1808 4935 c-6 -13 -41 -44 -77 -67 -138 -90 -184 -152 -184 -248 0
-96 46 -158 184 -248 111 -71 111 -109 1 -183 -142 -95 -185 -153 -185 -249 0
-96 46 -158 184 -248 36 -23 71 -54 77 -67 11 -24 16 -25 92 -25 l80 0 -7 33
c-15 80 -60 133 -185 216 -110 74 -110 112 1 183 138 90 184 152 184 248 0 96
-43 154 -185 249 -110 74 -110 112 1 183 121 79 169 134 184 216 l7 32 -80 0
c-76 0 -81 -1 -92 -25z"/>
<path d="M2448 4935 c-6 -13 -41 -44 -77 -67 -138 -90 -184 -152 -184 -248 0
-96 46 -158 184 -248 111 -71 111 -109 1 -183 -142 -95 -185 -153 -185 -249 0
-96 46 -158 184 -248 36 -23 71 -54 77 -67 11 -24 16 -25 92 -25 l80 0 -7 33
c-15 80 -60 133 -185 216 -110 74 -110 112 1 183 138 90 184 152 184 248 0 96
-43 154 -185 249 -110 74 -110 112 1 183 121 79 169 134 184 216 l7 32 -80 0
c-76 0 -81 -1 -92 -25z"/>
<path d="M4245 3511 c-92 -24 -173 -90 -215 -176 -24 -48 -25 -58 -28 -292
l-4 -243 -94 0 c-87 0 -97 -2 -119 -25 l-25 -24 0 -266 c0 -163 4 -274 10
-285 6 -11 22 -26 36 -33 l26 -14 -41 -32 c-26 -20 -52 -56 -73 -99 l-33 -67
-3 -873 -2 -872 24 -25 25 -25 591 0 591 0 25 25 24 25 -2 872 -3 873 -28 60
c-16 34 -48 78 -74 102 -25 24 -40 43 -34 43 7 0 23 11 36 25 l25 24 0 271 0
271 -25 24 c-22 23 -32 25 -119 25 l-94 0 -4 243 c-3 241 -3 242 -30 293 -40
75 -70 107 -137 143 -65 34 -164 49 -226 32z m163 -178 c66 -49 67 -53 70
-304 l3 -229 -160 0 -161 0 0 214 c0 128 4 226 11 243 14 37 47 72 84 89 40
19 119 12 153 -13z m312 -853 l0 -160 -400 0 -400 0 0 160 0 160 400 0 400 0
0 -160z m-320 -560 l0 -240 -80 0 -80 0 0 240 0 240 80 0 80 0 0 -240z m-320
-10 l0 -230 -120 0 -120 0 0 118 c0 152 6 165 135 264 55 42 101 77 103 78 1
0 2 -103 2 -230z m702 40 c14 -27 18 -61 18 -152 l0 -118 -120 0 -120 0 0 231
0 230 103 -78 c64 -49 108 -91 119 -113z m-702 -807 l0 -377 103 -103 c138
-138 136 -138 274 0 l103 103 0 377 0 377 120 0 120 0 0 -600 0 -600 -480 0
-480 0 0 600 0 600 120 0 120 0 0 -377z m320 34 l0 -343 -40 -39 -40 -39 -40
39 -40 39 0 343 0 343 80 0 80 0 0 -343z"/>
<path d="M328 3260 c-62 -33 -97 -111 -79 -178 7 -24 89 -138 231 -321 121
-156 220 -285 220 -286 0 -2 -35 -72 -78 -157 -290 -570 -451 -1207 -456
-1798 l-1 -185 28 -47 c31 -53 79 -94 134 -114 56 -20 2970 -20 3026 0 55 20
103 61 134 114 28 47 28 47 27 227 -5 607 -179 1281 -475 1841 -33 61 -59 113
-59 116 0 3 99 133 220 289 142 183 224 297 231 321 18 68 -18 146 -82 178
-37 20 -65 20 -1511 20 -1435 -1 -1474 -1 -1510 -20z m2935 -154 c-4 -7 -30
-43 -58 -79 l-50 -66 -1315 0 -1315 0 -50 66 c-27 36 -54 72 -58 79 -7 12 218
14 1423 14 1205 0 1430 -2 1423 -14z m-244 -313 c0 -5 -40 -57 -88 -118 l-87
-110 -1004 0 -1004 0 -87 110 c-48 61 -88 113 -88 118 -1 4 530 7 1179 7 649
0 1180 -3 1179 -7z m-86 -585 c264 -533 400 -1065 423 -1660 l7 -166 -31 -31
-30 -31 -1462 0 -1462 0 -30 31 -31 31 6 164 c24 597 159 1127 424 1662 l95
192 998 0 998 0 95 -192z"/>
<path d="M1720 2315 c-8 -2 -49 -9 -90 -15 -232 -38 -459 -157 -636 -334 -165
-165 -271 -355 -326 -586 -19 -76 -21 -126 -25 -467 l-5 -382 26 -26 25 -25
1151 0 1151 0 25 25 26 26 -5 382 c-5 408 -7 429 -62 593 -97 288 -321 545
-595 684 -167 84 -307 119 -505 125 -77 2 -147 2 -155 0z m266 -166 c153 -21
331 -92 459 -184 68 -48 205 -187 251 -255 44 -63 103 -183 131 -265 43 -126
53 -227 53 -527 l0 -278 -160 0 -160 0 0 135 c0 131 -1 137 -25 160 l-24 25
-296 0 -295 0 0 45 c0 41 2 45 25 45 13 0 50 9 80 21 243 91 234 378 -24 760
-107 159 -112 164 -161 164 -49 0 -54 -5 -161 -164 -258 -382 -267 -669 -24
-760 30 -12 67 -21 80 -21 23 0 25 -4 25 -45 l0 -45 -295 0 -296 0 -24 -25
c-24 -23 -25 -29 -25 -160 l0 -135 -160 0 -160 0 0 274 c0 298 8 387 47 511
54 173 141 312 274 440 98 94 146 129 255 183 190 96 400 130 610 101z m-89
-451 c99 -160 143 -272 143 -366 0 -51 -4 -62 -28 -85 -15 -15 -42 -30 -60
-33 -31 -6 -32 -6 -32 30 l0 36 -80 0 -80 0 0 -35 c0 -40 -13 -44 -65 -20 -47
23 -59 52 -53 133 4 51 15 92 46 161 38 87 140 261 152 261 3 0 28 -37 57 -82z
m503 -978 l0 -80 -560 0 -560 0 0 80 0 80 560 0 560 0 0 -80z"/>
</g>
</svg>
