<?xml version="1.0" standalone="no"?>
<!DOCTYPE svg PUBLIC "-//W3C//DTD SVG 20010904//EN"
 "http://www.w3.org/TR/2001/REC-SVG-20010904/DTD/svg10.dtd">
<svg version="1.0" xmlns="http://www.w3.org/2000/svg"
 width="512.000000pt" height="512.000000pt" viewBox="0 0 512.000000 512.000000"
 preserveAspectRatio="xMidYMid meet">

<g transform="translate(0.000000,512.000000) scale(0.100000,-0.100000)"
fill="#000000" stroke="none">
<path d="M1580 5114 c-189 -27 -313 -65 -454 -137 -383 -195 -636 -561 -691
-998 l-6 -46 -119 -6 c-106 -4 -125 -8 -172 -34 -60 -32 -112 -95 -128 -154
-7 -26 -10 -175 -8 -432 3 -434 1 -421 72 -495 58 -62 97 -76 233 -80 l122 -4
6 -47 c42 -314 157 -553 370 -767 236 -237 556 -374 869 -374 140 0 219 45
266 153 l21 47 97 -97 c53 -54 96 -100 95 -103 -1 -3 -134 -255 -295 -560
-162 -305 -300 -570 -306 -589 -17 -49 -15 -139 5 -197 25 -73 110 -154 187
-178 112 -35 236 -1 311 86 20 24 165 286 322 583 157 297 287 542 289 544 2
3 48 -10 102 -27 92 -30 180 -52 265 -66 l37 -7 0 -363 c0 -409 4 -437 67
-507 70 -77 165 -104 264 -76 69 21 121 64 153 129 l26 52 0 381 0 382 93 18
c50 10 141 33 201 52 60 19 112 31 116 26 5 -4 138 -253 297 -553 304 -575
322 -603 410 -642 177 -78 375 25 415 215 21 101 15 118 -311 733 l-301 568
98 101 c166 169 254 292 347 487 92 193 143 376 166 596 23 225 -1 320 -110
427 -78 76 -124 108 -238 164 -228 113 -524 190 -918 237 -215 27 -826 27
-1035 1 -288 -36 -525 -87 -722 -157 -62 -22 -116 -40 -120 -40 -5 0 -8 352
-8 783 l0 783 -26 52 c-29 58 -82 105 -144 127 -39 14 -145 18 -210 9z m163
-176 c12 -6 27 -18 34 -27 10 -12 12 -367 13 -1584 l0 -1568 -26 -26 c-25 -25
-28 -26 -132 -20 -145 7 -280 44 -417 112 -287 142 -497 399 -583 713 l-26 97
-4 645 c-4 698 -1 739 49 895 130 406 481 702 904 764 89 13 163 13 188 -1z
m-1313 -1613 l0 -425 -101 0 c-98 0 -101 1 -130 29 l-29 29 0 372 0 371 25 24
c23 23 31 25 130 25 l105 0 0 -425z m3053 38 c23 -191 89 -954 83 -960 -10
-11 -458 -16 -473 -5 -9 5 0 129 37 507 27 275 49 501 49 503 1 1 68 2 150 2
l148 0 6 -47z m-480 10 c-2 -16 -21 -219 -43 -453 -22 -234 -43 -445 -46 -469
l-6 -43 -61 6 c-103 10 -333 48 -346 56 -9 5 19 122 109 451 66 244 123 446
126 449 6 6 171 27 230 29 39 1 40 0 37 -26z m804 16 l113 -12 11 -36 c5 -20
61 -223 123 -451 78 -285 110 -417 102 -421 -24 -14 -402 -67 -409 -58 -2 2
-23 211 -46 464 -23 253 -45 475 -48 493 -6 38 -12 37 154 21z m536 -98 c4 -4
72 -158 151 -342 l144 -334 -31 -16 c-35 -18 -243 -89 -261 -89 -8 0 -176 590
-232 816 l-6 21 114 -24 c62 -14 116 -28 121 -32z m-1908 -363 c-61 -227 -116
-413 -122 -415 -14 -5 -204 59 -285 96 l-68 30 0 260 0 261 48 23 c95 48 257
101 416 137 140 32 138 78 11 -392z m2279 224 c113 -57 208 -146 227 -209 19
-65 0 -114 -72 -186 -32 -32 -65 -57 -72 -55 -10 4 -227 489 -227 510 0 11 39
-5 144 -60z m176 -685 c-81 -274 -225 -522 -405 -697 l-67 -65 -16 25 c-56 82
-116 123 -204 141 -107 22 -224 -25 -295 -119 -62 -82 -73 -201 -27 -303 15
-33 25 -61 23 -63 -2 -2 -40 -15 -85 -30 -194 -64 -446 -89 -654 -66 -114 12
-304 55 -373 84 l-37 16 27 53 c24 45 28 64 28 137 0 93 -16 136 -76 204 -76
87 -225 117 -336 67 -48 -21 -134 -99 -144 -130 -4 -11 -10 -11 -24 -3 -29 15
-145 146 -209 237 l-56 77 0 210 c0 196 1 210 17 203 167 -70 390 -130 629
-169 224 -36 334 -45 614 -52 418 -11 806 30 1175 122 156 40 400 142 485 204
35 26 37 7 10 -83z m-2304 -783 c27 -18 54 -72 54 -110 0 -29 -676 -1321 -713
-1362 -48 -52 -137 -50 -188 4 -20 21 -24 36 -23 82 0 55 12 79 343 702 189
355 350 653 360 664 39 45 114 54 167 20z m1634 -4 c16 -12 146 -246 374 -677
308 -579 350 -663 350 -703 1 -57 -23 -97 -71 -117 -49 -20 -97 -9 -138 30
-21 21 -148 252 -374 679 -300 569 -341 652 -341 691 0 103 114 158 200 97z
m-810 -930 c0 -345 -1 -361 -20 -380 -43 -43 -110 -34 -137 20 -9 19 -13 115
-13 373 l0 347 85 0 85 0 0 -360z"/>
<path d="M1450 4743 c-69 -18 -204 -81 -267 -124 -69 -47 -188 -164 -238 -234
-99 -139 -162 -312 -172 -475 -5 -91 -5 -97 18 -123 45 -52 133 -30 143 35 2
18 9 73 15 121 40 311 270 565 588 647 47 12 83 50 83 87 0 14 -13 37 -29 54
-33 33 -57 35 -141 12z"/>
<path d="M2759 5091 c-16 -16 -29 -40 -29 -53 0 -15 -22 -44 -68 -88 -54 -51
-73 -76 -87 -119 -33 -100 -5 -181 94 -272 41 -38 61 -63 61 -79 0 -16 -20
-41 -61 -79 -99 -91 -127 -172 -94 -272 14 -43 33 -68 87 -119 46 -44 68 -73
68 -88 0 -29 51 -82 79 -82 63 0 97 45 87 116 -8 64 -43 119 -110 177 -35 30
-56 56 -56 69 0 13 25 45 64 82 74 70 96 108 103 181 8 75 -26 145 -101 209
-83 72 -83 84 1 165 52 50 74 78 86 115 29 84 20 128 -30 154 -35 19 -63 14
-94 -17z"/>
<path d="M3278 5100 c-15 -11 -30 -38 -36 -62 -9 -34 -22 -51 -60 -80 -52 -40
-96 -110 -107 -170 -4 -23 -1 -57 10 -94 14 -50 27 -68 86 -124 47 -45 69 -74
69 -89 0 -16 -22 -45 -69 -90 -59 -56 -72 -75 -86 -124 -19 -65 -15 -109 15
-167 19 -37 68 -91 108 -117 13 -9 27 -34 33 -60 15 -57 51 -87 99 -79 46 7
70 38 70 90 -1 64 -34 125 -105 191 -36 34 -65 68 -65 78 0 9 33 50 73 90 78
77 97 116 97 198 -1 65 -29 117 -104 186 -36 34 -66 69 -66 79 0 9 29 45 65
79 72 69 104 129 105 193 0 78 -73 119 -132 72z"/>
<path d="M3785 5096 c-13 -13 -27 -39 -30 -58 -5 -26 -22 -49 -67 -88 -137
-121 -135 -273 6 -394 76 -65 76 -87 -3 -155 -72 -62 -102 -120 -103 -194 -1
-77 28 -133 100 -197 45 -39 62 -62 67 -88 17 -92 125 -112 159 -30 16 37 5
106 -25 154 -11 19 -45 55 -75 80 -68 59 -72 90 -17 137 95 82 122 131 123
218 0 75 -34 142 -105 203 -74 64 -74 87 -1 150 30 25 64 61 75 80 30 48 41
117 25 154 -23 55 -88 69 -129 28z"/>
</g>
</svg>
