<?xml version="1.0" standalone="no"?>
<!DOCTYPE svg PUBLIC "-//W3C//DTD SVG 20010904//EN"
 "http://www.w3.org/TR/2001/REC-SVG-20010904/DTD/svg10.dtd">
<svg version="1.0" xmlns="http://www.w3.org/2000/svg"
 width="512.000000pt" height="512.000000pt" viewBox="0 0 512.000000 512.000000"
 preserveAspectRatio="xMidYMid meet">

<g transform="translate(0.000000,512.000000) scale(0.100000,-0.100000)"
fill="#000000" stroke="none">
<path d="M2720 4234 c-697 -39 -1160 -129 -1455 -282 -90 -47 -196 -150 -213
-208 -8 -29 -12 -143 -12 -368 l0 -328 -28 6 c-15 3 -107 20 -205 37 -192 34
-217 33 -237 -13 -18 -42 -490 -1707 -490 -1728 0 -12 11 -32 25 -45 l24 -25
269 0 c242 0 272 2 291 18 15 12 33 60 61 156 22 76 41 140 42 142 2 1 70 -16
151 -39 91 -26 147 -47 147 -55 0 -7 -29 -129 -65 -272 -36 -143 -65 -269 -65
-280 0 -12 11 -32 25 -45 l24 -25 271 0 271 0 24 25 c14 13 25 30 25 37 0 7 5
30 11 52 12 44 -8 44 199 1 327 -68 665 -104 1060 -112 873 -17 1644 103 1987
309 72 43 155 133 171 185 17 58 17 2307 0 2367 -8 28 -33 62 -78 107 -181
183 -643 309 -1350 369 -126 11 -760 21 -880 14z m160 -313 l0 -158 -77 -7
c-42 -3 -114 -6 -160 -6 l-83 0 0 155 c0 181 -15 163 145 168 55 2 117 4 138
5 l37 2 0 -159z m428 153 l52 -7 0 -160 0 -160 -37 7 c-21 3 -93 6 -160 6
l-123 0 0 160 0 160 108 0 c59 0 131 -3 160 -6z m405 -25 l127 -12 0 -160 0
-160 -62 7 c-35 3 -107 9 -160 13 l-98 6 0 159 0 158 33 0 c17 0 89 -5 160
-11z m-1313 -158 l0 -158 -115 -12 c-63 -6 -135 -14 -160 -18 l-45 -6 0 160 0
160 128 15 c70 9 142 16 160 17 l32 1 0 -159z m1808 88 l112 -21 0 -160 c0
-149 -1 -159 -18 -154 -10 3 -81 17 -157 29 l-140 24 -3 158 -3 158 48 -7 c27
-3 99 -15 161 -27z m-2288 -149 l0 -159 -37 -6 c-40 -7 -236 -52 -265 -61 -17
-5 -18 7 -18 155 0 89 3 161 8 161 4 0 73 15 152 34 80 19 148 35 153 35 4 1
7 -71 7 -159z m2667 49 c91 -32 203 -87 238 -117 30 -25 55 -64 55 -84 0 -27
-63 -91 -120 -122 l-52 -28 -114 37 -114 38 0 153 c0 87 4 154 9 154 5 0 49
-14 98 -31z m-3151 -325 c-10 -27 -64 -26 -116 2 -57 31 -120 95 -120 122 0
44 48 88 155 143 l80 40 3 -147 c1 -82 0 -154 -2 -160z m2039 36 c197 -14 386
-35 565 -65 175 -29 400 -77 400 -85 0 -16 -443 -98 -670 -124 -469 -54 -1167
-46 -1605 19 -225 34 -525 93 -525 105 0 12 409 90 595 114 116 14 317 33 420
39 130 8 686 6 820 -3z m-2174 -198 c53 -27 124 -57 158 -68 l61 -19 0 -173
c0 -160 -1 -173 -17 -168 -10 3 -72 14 -138 25 -66 12 -130 23 -142 26 -23 5
-23 6 -23 215 0 116 1 210 3 210 1 0 45 -22 98 -48z m3579 -80 c0 -135 -5
-152 -55 -194 -31 -26 -126 -76 -199 -103 l-66 -25 0 158 0 157 61 19 c33 10
102 40 152 66 51 26 95 48 100 49 4 0 7 -56 7 -127z m-3070 -81 c52 -11 116
-23 143 -26 l47 -7 0 -119 0 -119 -160 0 -160 0 0 151 c0 139 1 150 18 145 9
-3 60 -14 112 -25z m2590 -131 c0 -88 -3 -160 -8 -160 -4 0 -57 -11 -117 -24
-61 -14 -129 -27 -152 -31 l-43 -7 0 159 0 160 78 11 c42 7 111 21 152 31 41
10 78 19 83 20 4 1 7 -71 7 -159z m-2075 55 c77 -8 143 -15 148 -15 4 0 7 -72
7 -161 l0 -161 -47 6 c-27 3 -99 11 -160 17 l-113 12 0 159 c0 120 3 158 13
158 6 0 75 -7 152 -15z m1595 -144 l0 -158 -122 -12 c-68 -7 -140 -14 -160
-17 l-38 -6 0 160 0 161 53 5 c28 4 86 10 127 15 41 5 90 9 108 10 l32 1 0
-159z m-1022 109 l62 0 0 -160 0 -160 -62 0 c-35 0 -107 3 -160 7 l-98 6 0
160 0 160 98 -6 c53 -4 125 -7 160 -7z m542 -148 l0 -159 -107 -6 c-58 -4
-130 -7 -160 -7 l-53 0 0 160 0 159 98 4 c53 1 125 4 160 5 l62 2 0 -158z
m1440 -60 c0 -73 -31 -110 -140 -166 -459 -237 -1648 -334 -2580 -211 -63 8
-125 17 -137 20 l-21 5 18 71 c10 39 20 72 22 74 2 2 52 -3 112 -11 291 -38
470 -48 871 -48 470 -1 732 18 1080 75 282 46 556 125 690 198 39 21 73 39 78
40 4 0 7 -20 7 -47z m-4022 8 c77 -14 132 -28 132 -35 0 -10 -23 -93 -71 -257
l-20 -68 -154 0 c-85 0 -155 3 -155 7 0 11 101 366 107 376 3 5 10 6 17 4 6
-2 71 -15 144 -27z m442 -81 c63 -11 116 -22 118 -24 1 -1 -11 -59 -29 -129
l-31 -126 -144 0 c-79 0 -144 3 -144 8 0 4 18 70 40 147 22 77 40 141 40 142
0 7 45 1 150 -18z m378 -919 l-220 -880 -158 0 -158 0 220 880 220 880 158 0
158 0 -220 -880z m3202 512 c0 -222 -1 -229 -55 -274 -31 -26 -126 -76 -199
-103 l-66 -25 0 238 0 237 61 19 c33 10 102 40 152 66 51 26 95 48 100 49 4 0
7 -92 7 -207z m-480 -212 c0 -132 -3 -240 -8 -240 -4 0 -57 -11 -117 -24 -61
-14 -129 -27 -152 -31 l-43 -7 0 239 0 240 78 11 c42 7 111 21 152 31 41 10
78 19 83 20 4 1 7 -107 7 -239z m-3093 135 c-6 -25 -13 -45 -17 -45 -3 0 -73
20 -156 44 l-149 45 166 0 166 1 -10 -45z m693 -196 l0 -241 -32 6 c-18 3 -52
8 -75 12 -24 4 -43 8 -43 10 0 3 25 105 56 229 49 193 59 225 75 225 18 0 19
-12 19 -241z m325 196 c77 -8 143 -15 148 -15 4 0 7 -108 7 -241 l0 -240 -42
5 c-24 3 -96 11 -160 17 l-118 12 0 239 c0 184 3 238 13 238 6 0 75 -7 152
-15z m1595 -223 l0 -239 -112 -12 c-62 -6 -134 -14 -160 -17 l-48 -6 0 240 0
241 53 5 c115 14 213 23 240 25 l27 1 0 -238z m-3232 183 c80 -23 131 -42 129
-49 -2 -6 -26 -86 -52 -178 l-48 -168 -157 0 -157 0 59 208 c72 253 66 235 81
229 6 -2 72 -21 145 -42z m2219 5 l53 0 0 -240 0 -240 -62 0 c-35 0 -107 3
-160 7 l-98 6 0 240 0 240 107 -6 c58 -4 130 -7 160 -7z m533 -228 l0 -239
-97 -6 c-54 -4 -126 -7 -160 -7 l-63 0 0 240 0 239 98 4 c53 1 125 4 160 5
l62 2 0 -238z m-2325 101 c71 -20 132 -38 134 -40 3 -2 -8 -55 -23 -118 l-28
-115 -158 0 -158 0 34 118 c19 64 39 134 45 155 5 20 13 37 17 37 3 0 65 -16
137 -37z m3765 -241 c0 -73 -31 -110 -140 -166 -336 -174 -1077 -278 -1860
-263 -369 7 -669 37 -996 98 l-112 21 18 70 c10 38 20 71 22 73 2 2 67 -7 143
-19 571 -97 1263 -112 1895 -41 393 44 767 137 945 234 39 21 73 39 78 40 4 0
7 -20 7 -47z m-3733 -234 c-5 -24 -11 -45 -13 -46 -3 -4 -296 78 -303 84 -2 2
70 4 161 4 l166 0 -11 -42z m-649 -34 c70 -20 130 -38 134 -40 4 -3 3 -17 -2
-32 -5 -15 -18 -60 -30 -99 l-21 -73 -156 0 -155 0 5 23 c39 151 74 257 85
257 7 0 70 -16 140 -36z m4382 -132 c0 -135 -5 -152 -55 -194 -31 -26 -126
-76 -199 -103 l-66 -25 0 158 0 157 61 19 c33 10 102 40 152 66 51 26 95 48
100 49 4 0 7 -56 7 -127z m-480 -210 l0 -159 -122 -26 c-68 -15 -140 -29 -160
-33 l-38 -6 0 159 0 159 103 17 c56 10 125 24 152 32 28 7 53 14 58 14 4 1 7
-70 7 -157z m-2522 116 l122 -22 0 -159 0 -159 -37 6 c-76 13 -281 59 -291 65
-14 8 56 291 72 291 6 0 66 -10 134 -22z m447 -63 c77 -8 143 -15 148 -15 4 0
7 -72 7 -161 l0 -161 -37 6 c-21 3 -93 11 -160 17 l-123 13 0 158 c0 120 3
158 13 158 6 0 75 -7 152 -15z m1595 -144 l0 -158 -122 -12 c-68 -7 -140 -14
-160 -17 l-38 -6 0 160 0 161 53 5 c28 4 86 10 127 15 41 5 90 9 108 10 l32 1
0 -159z m-1007 109 l47 0 0 -160 0 -160 -53 0 c-30 0 -102 3 -160 7 l-107 6 0
160 0 160 113 -6 c61 -4 133 -7 160 -7z m527 -148 l0 -159 -107 -6 c-58 -4
-130 -7 -160 -7 l-53 0 0 160 0 159 98 4 c53 1 125 4 160 5 l62 2 0 -158z"/>
</g>
</svg>
