<?xml version="1.0" standalone="no"?>
<!DOCTYPE svg PUBLIC "-//W3C//DTD SVG 20010904//EN"
 "http://www.w3.org/TR/2001/REC-SVG-20010904/DTD/svg10.dtd">
<svg version="1.0" xmlns="http://www.w3.org/2000/svg"
 width="512.000000pt" height="512.000000pt" viewBox="0 0 512.000000 512.000000"
 preserveAspectRatio="xMidYMid meet">

<g transform="translate(0.000000,512.000000) scale(0.100000,-0.100000)"
fill="#000000" stroke="none">
<path d="M2437 4429 c-185 -20 -277 -57 -615 -251 -147 -84 -296 -163 -332
-175 -59 -20 -85 -23 -270 -23 -113 0 -239 -5 -280 -10 -192 -25 -343 -174
-370 -365 -5 -38 -10 -253 -10 -477 l0 -407 -29 -20 c-42 -30 -119 -135 -151
-206 -59 -130 -60 -139 -60 -892 0 -437 4 -701 10 -725 18 -63 70 -129 130
-162 104 -58 250 -34 324 55 52 62 60 87 66 219 l5 125 1610 3 c886 2 1656 0
1711 -3 l101 -7 5 -106 c8 -164 52 -243 162 -293 49 -22 143 -25 190 -5 47 19
113 82 139 130 l22 41 0 740 0 740 -27 73 c-33 92 -79 168 -140 235 l-48 51 0
422 c0 245 -4 444 -10 475 -34 181 -176 320 -356 349 -33 6 -144 10 -249 10
-104 0 -210 5 -235 11 -25 5 -205 90 -400 188 -195 98 -387 190 -426 204 -143
51 -320 73 -467 56z m328 -182 c74 -17 157 -54 478 -214 214 -106 407 -198
430 -204 23 -6 155 -14 292 -18 283 -8 310 -14 381 -93 70 -78 69 -70 72 -507
l3 -394 -23 7 c-13 4 -48 13 -78 22 -30 8 -114 18 -187 21 l-132 6 -3 271 c-3
268 -3 272 -28 314 -15 27 -42 54 -70 70 l-45 27 -420 3 c-480 4 -506 1 -564
-57 -55 -55 -61 -92 -61 -380 l0 -251 -250 0 -250 0 0 238 c0 134 -5 253 -11
275 -13 47 -63 106 -106 123 -41 18 -905 20 -950 3 -35 -13 -79 -54 -101 -94
-14 -25 -18 -70 -20 -286 l-3 -256 -127 -6 c-80 -4 -152 -13 -195 -25 -54 -15
-70 -17 -73 -7 -3 7 -4 183 -2 391 l3 379 28 57 c31 64 70 101 137 132 40 18
73 21 320 26 260 6 279 8 340 31 36 14 185 93 331 177 146 83 290 162 320 175
176 77 365 91 564 44z m1065 -866 c6 -12 10 -115 10 -265 l0 -246 -435 0 -435
0 0 253 c0 183 3 256 12 265 9 9 117 12 425 12 397 0 413 -1 423 -19z m-1686
-37 c3 -9 6 -119 6 -245 l0 -229 -435 0 -435 0 0 229 c0 126 3 236 6 245 5 14
53 16 429 16 376 0 424 -2 429 -16z m2102 -645 c186 -34 344 -189 383 -377 6
-29 11 -145 11 -257 l0 -205 -2080 0 -2080 0 0 206 c0 237 12 309 66 401 65
111 191 203 314 229 75 17 3297 19 3386 3z m394 -1395 l0 -396 -29 -29 c-40
-40 -89 -40 -133 0 l-32 29 -6 133 c-6 149 -18 181 -83 217 -30 16 -143 17
-1767 20 -1186 2 -1746 0 -1771 -8 -97 -27 -128 -89 -129 -247 0 -110 -1 -113
-29 -145 -25 -28 -36 -33 -75 -33 -36 0 -51 6 -73 28 l-28 27 -3 400 -3 400
2081 0 2080 0 0 -396z"/>
</g>
</svg>
