<?xml version="1.0" ?><svg id="Layer_1" style="enable-background:new 0 0 512 512;" version="1.1" viewBox="0 0 512 512" xml:space="preserve" xmlns="http://www.w3.org/2000/svg" xmlns:xlink="http://www.w3.org/1999/xlink"><g><path d="M338.991,337.59c0.635-1.049-0.03-0.666-1.402,0.242L297.978,365   c-6.646,4.538-20.481,14.017-34.337,8.209c-7.583-3.146-12.081-9.681-15.358-14.461l-54.708-79.545l-52.761-81.845   c-3.146-4.901-7.442-11.597-7.412-19.745c0.05-15.086,14.078-24.162,20.824-28.519l40.337-26.078   c0.393-0.262,0.716-0.464,0.978-0.666l-41.386-70.712c-4.477-7.644-8.662-14.158-14.552-16.639   c-7.009-2.904-16.347,0.141-25.322,3.509C96.825,45.124,81.527,51.517,71.12,62.973C53.19,82.658,52.08,114.443,52.454,142.7   c0.373,27.651,7.362,60.062,20.774,96.326c10.8,29.184,25.413,57.36,43.504,83.882c0.524,0.484,0.988,1.049,1.382,1.694   c0.625,1.008,1.261,2.017,1.896,3.025c0.696,1.008,1.402,1.997,2.118,2.985c0.444,0.625,0.787,1.271,1.039,1.956   c17.466,26.885,37.826,51.229,60.607,72.466c28.287,26.381,55.494,45.339,80.867,56.331c25.937,11.254,55.726,22.468,80.735,13.513   c14.602-5.183,26.401-16.821,39.228-30.374c6.575-6.978,13.009-14.441,13.009-22.024c-0.01-6.353-4.417-12.747-9.741-19.846   L338.991,337.59z" style="fill:none;"/><path d="M352.201,327.667c-1.523-2.037-4.377-5.829-9.338-7.18c-6.595-1.755-12.202,2.077-14.602,3.711l-39.611,27.167   c-6.454,4.417-13.695,8.632-18.676,6.595c-2.834-1.19-5.335-4.578-8.078-8.572l-54.899-79.828l-52.287-81.139   c-2.249-3.509-4.8-7.483-4.79-10.77c0.02-5.425,7.109-10.689,13.281-14.683l40.337-26.078c2.44-1.573,8.148-5.264,9.056-12.101   c0.676-5.103-1.735-9.177-3.005-11.315l-41.174-70.187c-4.629-7.906-10.962-18.717-22.438-23.537   c-13.654-5.688-28.589-0.081-37.534,3.308C88.949,30.441,71.775,37.701,58.897,51.84c-21.974,24.142-23.376,59.659-22.962,91.062   c0.393,29.547,7.725,63.814,21.802,101.852c11.889,32.129,28.196,63.088,48.506,92.03c18.868,29.91,41.144,56.936,66.254,80.352   c29.678,27.651,58.469,47.639,85.576,59.397c21.006,9.096,44.401,18.152,67.424,18.152c8.582,0,17.103-1.271,25.433-4.235   c18.041-6.414,31.362-19.463,45.682-34.61c6.555-6.938,17.517-18.575,17.517-33.359c-0.01-12.384-7.543-22.428-13.049-29.769   L352.201,327.667z M384.602,444.505c-12.827,13.553-24.626,25.191-39.228,30.374c-25.009,8.955-54.798-2.259-80.735-13.513   c-25.372-10.992-52.58-29.951-80.867-56.331c-22.781-21.238-43.141-45.581-60.607-72.466c-0.252-0.686-0.595-1.331-1.039-1.956   c-0.716-0.988-1.422-1.977-2.118-2.985c-0.635-1.008-1.271-2.017-1.896-3.025c-0.393-0.645-0.857-1.21-1.382-1.694   c-18.091-26.522-32.704-54.698-43.504-83.882c-13.412-36.263-20.401-68.675-20.774-96.326C52.08,114.443,53.19,82.658,71.12,62.973   c10.407-11.456,25.705-17.849,43.161-24.465c8.975-3.368,18.313-6.414,25.322-3.509c5.889,2.481,10.074,8.995,14.552,16.639   l41.386,70.712c-0.262,0.202-0.585,0.403-0.978,0.666l-40.337,26.078c-6.746,4.356-20.774,13.432-20.824,28.519   c-0.03,8.148,4.266,14.844,7.412,19.745l52.761,81.845l54.708,79.545c3.277,4.78,7.775,11.315,15.358,14.461   c13.856,5.809,27.692-3.671,34.337-8.209l39.611-27.167c1.371-0.908,2.037-1.291,1.402-0.242l48.879,65.044   c5.325,7.099,9.731,13.493,9.741,19.846C397.611,430.064,391.177,437.526,384.602,444.505z"/><path d="M435.508,120.171C390.239,55.974,313.387,20.135,235.051,26.468   c-4.538,0.363-7.926,4.356-7.553,8.894c0.373,4.538,4.235,7.967,8.904,7.563c72.567-5.708,143.692,27.349,185.613,86.766   c41.911,59.437,49.353,137.611,19.412,203.987c-1.876,4.155-0.02,9.036,4.135,10.911c1.099,0.504,2.259,0.746,3.398,0.746   c3.146,0,6.151-1.815,7.533-4.881C488.824,268.775,480.787,184.368,435.508,120.171z" style="fill:#0B0B0B;"/><path d="M251.358,76.042c-4.538,0.484-7.805,4.578-7.311,9.096c0.494,4.558,4.719,8.027,9.106,7.321   c52.035-5.688,103.698,16.821,134.959,58.651c31.262,41.85,38.139,97.818,17.94,146.062c-1.755,4.215,0.222,9.036,4.437,10.81   c1.039,0.424,2.118,0.645,3.187,0.645c3.227,0,6.293-1.916,7.624-5.083c22.438-53.608,14.794-115.809-19.957-162.318   C366.622,94.718,309.242,69.649,251.358,76.042z" style="fill:#0B0B0B;"/><path d="M375.113,290.839c1.039,0.424,2.118,0.645,3.187,0.645c3.227,0,6.293-1.916,7.624-5.083   c17.033-40.721,11.234-87.956-15.147-123.271c-26.381-35.315-69.895-54.234-113.893-49.494c-4.528,0.484-7.805,4.558-7.311,9.096   c0.494,4.538,4.699,7.967,9.106,7.321c38.008-4.114,75.966,12.323,98.867,42.959c22.892,30.656,27.924,71.659,13.13,107.015   C368.921,284.244,370.898,289.085,375.113,290.839z" style="fill:#0B0B0B;"/></g></svg>