<?xml version="1.0" standalone="no"?>
<!DOCTYPE svg PUBLIC "-//W3C//DTD SVG 20010904//EN"
 "http://www.w3.org/TR/2001/REC-SVG-20010904/DTD/svg10.dtd">
<svg version="1.0" xmlns="http://www.w3.org/2000/svg"
 width="512.000000pt" height="512.000000pt" viewBox="0 0 512.000000 512.000000"
 preserveAspectRatio="xMidYMid meet">

<g transform="translate(0.000000,512.000000) scale(0.100000,-0.100000)"
fill="#000000" stroke="none">
<path d="M1833 5106 c-109 -35 -194 -117 -230 -218 -15 -45 -18 -84 -17 -263
0 -223 6 -257 55 -326 12 -17 18 -34 13 -38 -5 -5 -61 -29 -124 -56 -145 -59
-217 -103 -290 -174 -69 -68 -123 -150 -157 -239 -14 -38 -52 -212 -88 -401
-67 -359 -68 -377 -19 -400 36 -16 50 -14 78 12 24 20 31 51 90 366 75 401 90
442 198 550 67 67 143 109 338 187 l95 38 175 -1 175 0 95 -38 c175 -69 257
-113 319 -170 69 -64 114 -131 140 -207 11 -29 78 -334 151 -678 72 -344 139
-636 147 -650 9 -14 35 -42 57 -62 l41 -37 -40 -1 c-62 0 -113 18 -156 57 -48
43 -41 22 -204 653 -136 530 -132 520 -205 520 -30 0 -43 -6 -59 -26 -20 -26
-21 -37 -21 -425 l0 -399 -440 0 -440 0 0 28 c0 15 -7 180 -15 367 -8 187 -15
359 -15 383 0 35 -6 50 -29 73 -35 35 -70 37 -106 7 -24 -21 -32 -60 -129
-555 -57 -292 -112 -548 -121 -567 -36 -76 -114 -116 -221 -116 l-59 0 71 65
c39 35 76 77 82 92 6 15 23 88 36 161 23 120 24 137 11 162 -24 46 -78 55
-113 17 -16 -17 -28 -56 -46 -151 -13 -70 -28 -132 -32 -136 -5 -5 -61 -54
-124 -109 l-115 -101 -138 0 c-155 0 -186 -9 -207 -60 -18 -44 -5 -133 30
-207 41 -82 129 -164 210 -194 l60 -22 0 -833 0 -834 -60 0 c-47 0 -64 -4 -80
-20 -30 -30 -27 -83 6 -109 l27 -21 2119 0 c2335 0 2169 -5 2183 61 5 23 2 38
-12 58 -18 23 -28 26 -87 29 l-66 3 0 834 c0 699 2 835 14 835 7 0 45 16 84
35 126 63 201 175 210 311 4 71 4 74 -26 103 l-30 31 -754 0 -753 0 -107 90
c-60 50 -108 94 -108 98 0 18 -252 1201 -266 1252 -35 122 -129 260 -229 338
-68 52 -121 81 -245 132 -58 24 -107 45 -109 47 -2 2 3 11 11 20 9 10 26 38
39 63 23 44 24 52 24 290 l0 245 -28 53 c-37 71 -97 128 -166 160 -46 22 -73
27 -156 29 -65 2 -115 -2 -142 -11z m225 -149 c42 -16 91 -63 108 -104 17 -40
20 -397 3 -440 -56 -148 -313 -169 -401 -32 -34 52 -41 109 -37 297 4 145 5
150 34 197 42 68 96 95 189 94 39 0 86 -6 104 -12z m641 -2605 c12 -23 21 -45
21 -47 0 -3 -22 -5 -48 -5 l-49 0 -41 150 c-42 148 -42 151 -41 312 l0 163 69
-265 c38 -146 78 -284 89 -308z m-1340 358 c1 -103 0 -108 -53 -255 -44 -124
-57 -151 -75 -153 -26 -4 -26 -6 3 59 15 32 42 145 67 278 47 242 56 254 58
71z m729 -225 c7 -76 -17 -168 -64 -252 -59 -102 -88 -171 -113 -270 -38 -147
-20 -299 51 -434 18 -35 34 -67 36 -71 5 -11 -128 -10 -249 2 -131 13 -282 43
-396 78 l-88 28 -3 159 -2 160 115 319 c63 175 115 321 115 323 0 2 134 2 298
1 l297 -3 3 -40z m406 -275 l89 -315 4 -162 5 -162 -98 -30 c-90 -28 -279 -71
-308 -71 -12 1 -63 73 -94 135 -80 162 -63 333 54 540 62 109 85 183 91 293
l6 93 81 -3 81 -3 89 -315z m-1304 -69 c0 -5 -14 -48 -31 -95 l-32 -86 -266 0
c-147 0 -282 5 -302 10 -71 20 -150 93 -164 153 l-7 27 401 0 c230 0 401 -4
401 -9z m3525 -28 c-25 -59 -61 -99 -112 -124 l-48 -24 -773 -5 c-751 -5 -774
-6 -788 -24 -23 -33 -18 -82 12 -105 26 -21 34 -21 720 -21 l694 0 0 -830 0
-830 -1166 0 c-1107 0 -1166 1 -1153 17 8 10 42 51 76 91 49 58 65 85 74 128
13 59 15 50 -120 545 l-28 105 81 147 81 146 75 16 c41 9 132 34 202 56 191
59 204 82 195 349 -5 145 -9 178 -36 273 -17 59 -31 112 -31 117 0 7 357 10
1030 10 l1030 0 -15 -37z m-3605 -443 c0 -147 6 -176 47 -213 21 -18 151 -65
240 -86 l52 -13 61 -154 c33 -85 60 -157 60 -160 0 -3 -79 -183 -176 -401
-181 -405 -183 -413 -159 -475 7 -17 -10 -18 -269 -18 l-276 0 0 830 0 830
210 0 210 0 0 -140z m691 -366 l76 -6 116 -432 c65 -237 117 -436 117 -443 0
-22 -168 -208 -208 -231 -22 -12 -42 -22 -46 -22 -3 0 4 24 15 53 12 28 37 93
56 142 l35 90 -166 427 c-91 235 -166 430 -166 433 0 4 21 4 48 1 26 -3 81 -8
123 -12z m262 -26 l-17 -33 -6 25 c-6 25 4 40 28 40 9 0 8 -8 -5 -32z m-373
-536 l32 -82 -87 -158 c-48 -86 -103 -174 -123 -195 -36 -37 -118 -84 -129
-74 -3 3 55 141 128 306 74 165 137 297 140 293 3 -4 21 -44 39 -90z m52 -438
l-60 -149 -57 -3 -57 -3 48 49 c28 27 72 91 103 148 30 54 59 105 65 113 26
34 12 -18 -42 -155z"/>
<path d="M3547 4748 c-22 -17 -37 -61 -37 -107 0 -62 -26 -130 -90 -236 -71
-118 -99 -199 -102 -302 -3 -68 -1 -76 21 -94 27 -22 68 -24 95 -4 14 11 23
38 33 105 14 94 34 145 105 257 56 89 80 164 86 264 4 78 2 89 -17 108 -23 23
-69 28 -94 9z"/>
<path d="M4120 4742 c-18 -14 -24 -33 -30 -98 -9 -91 -24 -131 -79 -218 -97
-154 -127 -259 -117 -404 8 -108 34 -183 103 -296 67 -110 82 -149 93 -244 5
-46 14 -80 26 -93 24 -26 78 -25 105 2 20 20 21 29 16 103 -7 109 -26 166 -94
277 -85 141 -97 176 -97 294 0 116 13 154 92 284 69 112 93 179 99 279 5 77 4
84 -17 107 -28 30 -69 32 -100 7z"/>
<path d="M4693 4741 c-15 -14 -22 -38 -28 -88 -4 -37 -15 -93 -26 -123 -24
-69 -24 -95 1 -120 26 -26 81 -26 104 -1 49 54 89 256 62 310 -24 45 -76 56
-113 22z"/>
<path d="M4513 4265 c-33 -23 -46 -103 -41 -236 6 -134 17 -167 98 -304 76
-129 91 -172 93 -270 2 -111 -15 -166 -84 -280 -80 -134 -101 -191 -107 -298
-5 -104 7 -127 68 -127 53 0 69 23 80 118 10 94 20 119 88 231 92 149 120 269
101 425 -12 94 -38 162 -107 274 -77 127 -86 162 -79 313 l6 128 -26 21 c-31
24 -61 26 -90 5z"/>
<path d="M3444 3807 c-37 -32 -35 -69 5 -132 44 -70 61 -134 61 -235 0 -106
-16 -156 -88 -274 -69 -115 -89 -166 -101 -265 -15 -114 3 -151 70 -151 49 0
65 23 75 110 9 88 25 129 90 237 84 139 96 178 102 319 5 139 -7 195 -65 307
-55 105 -97 128 -149 84z"/>
<path d="M4078 3258 c-19 -7 -43 -36 -83 -102 -63 -106 -90 -181 -100 -282 -6
-62 -5 -72 15 -96 45 -58 130 -26 130 50 0 61 24 144 60 208 90 162 85 148 71
182 -15 36 -54 53 -93 40z"/>
</g>
</svg>
