<?xml version="1.0" standalone="no"?>
<!DOCTYPE svg PUBLIC "-//W3C//DTD SVG 20010904//EN"
 "http://www.w3.org/TR/2001/REC-SVG-20010904/DTD/svg10.dtd">
<svg version="1.0" xmlns="http://www.w3.org/2000/svg"
 width="475.000000pt" height="251.000000pt" viewBox="0 0 475.000000 251.000000"
 preserveAspectRatio="xMidYMid meet">

<g transform="translate(0.000000,251.000000) scale(0.100000,-0.100000)"
fill="#000000" stroke="none">
<path d="M0 1255 l0 -1255 2375 0 2375 0 0 1255 0 1255 -2375 0 -2375 0 0
-1255z m1521 1029 c113 -21 268 -83 357 -142 170 -114 284 -246 377 -435 77
-158 87 -207 90 -421 l3 -178 31 -19 c17 -10 35 -19 40 -19 5 0 14 21 20 48
30 118 31 122 63 138 36 19 34 19 328 -25 292 -44 310 -43 326 24 9 40 22 55
48 55 18 0 27 -12 46 -57 22 -54 120 -173 142 -173 5 0 34 26 66 58 50 50 76
92 96 155 5 15 19 17 105 17 59 0 101 4 103 10 7 23 359 -67 514 -131 l72 -30
-20 -72 c-11 -40 -46 -153 -78 -252 -31 -99 -60 -192 -64 -207 -8 -33 -15 -34
-64 -9 -54 27 -298 104 -442 140 -155 38 -290 59 -440 67 l-116 7 -28 -65
c-40 -95 -61 -103 -276 -102 -93 0 -198 7 -240 15 -41 7 -79 13 -85 14 -5 0
-19 -34 -30 -75 -19 -68 -23 -75 -45 -72 -13 1 -37 13 -54 26 -41 31 -143 82
-182 90 -27 6 -34 3 -57 -26 -149 -192 -383 -331 -631 -374 -119 -21 -318 -14
-427 15 -368 99 -647 378 -746 746 -23 87 -27 119 -27 250 0 131 4 162 27 250
66 246 213 457 414 596 72 49 200 114 277 139 124 40 361 52 507 24z m1905
-274 c1 -238 10 -294 64 -400 32 -64 48 -72 88 -44 37 25 20 94 -23 94 -8 0
-16 4 -19 9 -9 13 31 280 48 330 9 24 31 64 50 90 34 45 93 97 102 88 3 -2 7
-192 11 -421 l6 -416 -101 0 c-79 0 -102 -3 -102 -13 0 -35 -64 -139 -109
-177 l-49 -40 -60 58 c-47 46 -63 69 -78 115 l-18 57 -98 0 -98 0 0 328 c0
181 3 370 6 420 l7 92 27 -17 c85 -55 142 -177 160 -343 6 -58 13 -115 16
-127 3 -18 -2 -25 -29 -37 -42 -17 -52 -47 -25 -81 32 -40 61 -33 92 24 51 95
66 183 66 397 0 155 3 202 16 234 l17 41 16 -23 c13 -19 16 -57 17 -238z"/>
<path d="M1140 2181 c-115 -25 -181 -50 -269 -100 -215 -122 -355 -295 -437
-541 -27 -81 -28 -94 -29 -265 0 -178 1 -181 33 -275 91 -261 242 -439 467
-550 138 -68 230 -91 391 -97 119 -5 141 -3 239 22 59 14 127 35 152 46 203
87 384 266 479 476 109 238 106 529 -6 769 -114 245 -340 434 -598 500 -134
35 -305 41 -422 15z m768 -374 l3 -107 54 6 55 7 0 -35 c0 -36 0 -36 -55 -43
l-55 -6 -1 -252 c-1 -139 -1 -258 0 -265 2 -14 -39 -32 -75 -32 l-24 0 0 261
0 262 -46 -7 -45 -6 3 38 c3 35 6 38 46 46 l42 9 0 108 c0 120 6 131 65 126
l30 -2 3 -108z m-1118 -406 l0 -508 -37 -6 c-21 -4 -41 -3 -45 1 -5 5 -7 233
-6 508 l3 499 35 6 c19 4 38 7 43 8 4 0 7 -228 7 -508z m294 393 c23 -23 19
-61 -9 -89 -26 -27 -73 -33 -93 -13 -19 19 -14 76 8 98 24 24 72 26 94 4z
m459 -165 c35 -18 77 -61 77 -79 0 -8 -13 -23 -28 -32 -28 -17 -29 -17 -56 11
-52 54 -140 46 -183 -18 -51 -76 -23 -113 101 -136 49 -9 107 -25 128 -36 118
-60 74 -266 -69 -331 -60 -27 -159 -34 -204 -15 -41 17 -92 77 -87 102 2 9 15
24 29 32 26 16 28 15 66 -25 38 -40 43 -42 96 -42 51 0 61 4 96 35 41 37 57
83 45 130 -8 33 -23 40 -132 64 -50 11 -104 27 -121 36 -56 29 -77 108 -47
178 19 44 85 106 132 122 48 17 128 19 157 4z m-463 -374 c0 -281 -1 -295 -19
-305 -11 -5 -31 -10 -45 -10 l-26 0 0 299 c0 324 -3 309 58 310 l32 1 0 -295z
m1088 -212 c-3 -19 -45 -27 -593 -117 -115 -19 -345 -58 -510 -86 -165 -28
-336 -57 -380 -65 -49 -8 -84 -10 -90 -4 -18 18 13 30 126 49 63 11 236 40
384 65 149 25 405 69 570 97 165 28 332 56 370 63 105 19 127 18 123 -2z
m-353 -289 c0 -72 -3 -89 -15 -89 -8 -1 -25 -6 -37 -13 -34 -19 -90 -15 -113
8 -24 24 -27 88 -5 129 18 35 64 55 110 48 21 -3 35 -2 35 4 0 6 6 9 13 7 8
-3 12 -31 12 -94z m-235 -4 c0 -102 -31 -150 -99 -150 -45 0 -61 30 -61 117 0
58 3 73 15 73 12 0 15 -15 15 -74 0 -80 13 -103 49 -91 42 13 51 33 51 111 0
59 3 74 15 74 12 0 15 -13 15 -60z m-536 41 c9 -15 -23 -36 -36 -23 -5 5 -7
15 -4 21 9 13 33 14 40 2z m201 -65 c20 -29 17 -157 -2 -164 -10 -3 -13 16
-13 70 0 90 -8 106 -47 92 -38 -13 -53 -47 -53 -121 0 -49 -3 -63 -15 -63 -12
0 -15 17 -15 89 0 59 4 92 12 97 6 4 13 3 16 -4 2 -6 11 -3 23 9 27 27 75 25
94 -5z m-205 -101 c0 -78 -3 -95 -15 -95 -12 0 -15 16 -15 88 0 49 3 92 7 95
18 19 23 -1 23 -88z m315 -35 c0 -8 -8 -16 -17 -18 -13 -2 -18 3 -18 18 0 15
5 20 18 18 9 -2 17 -10 17 -18z"/>
<path d="M1686 789 c-66 -77 9 -175 79 -104 32 31 34 86 5 115 -28 28 -54 25
-84 -11z"/>
<path d="M3040 812 l-23 -19 23 -23 23 -23 18 24 c10 13 20 32 23 42 6 24 -34
23 -64 -1z"/>
<path d="M2345 714 c-8 -8 -12 -21 -9 -28 6 -15 77 -66 92 -66 12 0 33 73 24
82 -4 4 -26 11 -50 16 -33 8 -46 7 -57 -4z"/>
<path d="M3093 1951 c4 -68 7 -166 7 -218 0 -108 7 -114 59 -52 l34 41 -12
112 c-12 113 -41 197 -78 227 -15 13 -16 4 -10 -110z"/>
<path d="M3646 2003 c-20 -42 -31 -85 -41 -167 l-13 -111 29 -30 c16 -17 29
-36 29 -43 0 -7 9 -12 20 -12 19 0 20 7 20 188 0 103 3 197 6 210 13 45 -22
22 -50 -35z"/>
<path d="M3380 1648 c-5 -13 -18 -44 -29 -70 l-20 -48 29 -20 c34 -24 39 -24
69 -1 l24 18 -28 72 c-16 39 -30 71 -32 71 -2 0 -8 -10 -13 -22z"/>
<path d="M3107 1574 c-4 -4 -7 -45 -7 -91 l0 -83 64 0 c63 0 64 0 70 31 10 51
8 57 -24 64 -17 4 -43 23 -63 46 -18 22 -36 37 -40 33z"/>
<path d="M3648 1550 c-9 -16 -34 -38 -55 -47 -21 -10 -40 -18 -41 -20 -2 -1
-1 -20 3 -42 l7 -41 64 0 65 0 -3 87 c-2 47 -7 88 -13 90 -5 1 -18 -11 -27
-27z"/>
<path d="M3294 1446 c-8 -34 2 -46 37 -46 35 0 38 21 9 50 -26 26 -38 25 -46
-4z"/>
<path d="M3447 1452 c-27 -30 -22 -52 12 -52 36 0 41 7 34 43 -6 31 -23 35
-46 9z"/>
<path d="M3306 1326 c3 -8 16 -16 30 -19 18 -3 24 0 24 14 0 14 -7 19 -30 19
-21 0 -28 -4 -24 -14z"/>
<path d="M3420 1285 c0 -53 11 -72 24 -39 3 8 2 12 -4 9 -6 -4 -10 7 -10 24 0
26 4 31 25 31 16 0 25 6 25 15 0 10 -10 15 -30 15 -30 0 -30 -1 -30 -55z"/>
<path d="M3345 1251 c-3 -5 -1 -12 5 -16 5 -3 10 1 10 9 0 18 -6 21 -15 7z"/>
</g>
</svg>
