<?xml version="1.0" standalone="no"?>
<!DOCTYPE svg PUBLIC "-//W3C//DTD SVG 20010904//EN"
 "http://www.w3.org/TR/2001/REC-SVG-20010904/DTD/svg10.dtd">
<svg version="1.0" xmlns="http://www.w3.org/2000/svg"
 width="512.000000pt" height="512.000000pt" viewBox="0 0 512.000000 512.000000"
 preserveAspectRatio="xMidYMid meet">

<g transform="translate(0.000000,512.000000) scale(0.100000,-0.100000)"
fill="#000000" stroke="none">
<path d="M3485 5105 c-445 -84 -786 -427 -849 -855 l-12 -85 -746 -3 -747 -2
-20 -26 c-28 -35 -26 -69 4 -99 l24 -25 1316 0 c1246 0 1315 -1 1315 -17 0
-40 -60 -337 -79 -396 -35 -105 -19 -101 -236 -47 -284 71 -386 84 -670 84
-285 0 -387 -13 -675 -85 -257 -64 -385 -80 -640 -79 -271 0 -386 15 -675 89
-102 26 -110 30 -122 59 -11 27 -73 348 -73 379 0 8 38 12 126 15 118 3 127 4
145 27 25 30 24 62 -2 95 l-21 26 -190 -2 -191 -3 -20 -27 -21 -28 43 -236
c24 -130 52 -264 63 -298 91 -280 318 -517 585 -611 129 -45 136 -48 171 -79
67 -59 75 -88 83 -316 8 -234 17 -280 84 -415 76 -154 176 -259 337 -352 43
-24 91 -61 108 -81 55 -67 60 -98 60 -397 0 -260 1 -273 21 -299 26 -33 79
-36 110 -5 20 20 20 28 16 327 -2 169 -7 318 -11 332 l-7 25 98 0 99 0 -13
-50 c-20 -78 -19 -1143 2 -1212 21 -72 84 -137 206 -213 l104 -65 -203 -3
c-112 -1 -291 -1 -399 0 l-196 3 100 63 c115 72 164 117 195 181 20 40 23 65
26 188 2 92 0 149 -8 163 -26 49 -105 45 -129 -6 -6 -14 -11 -76 -11 -140 0
-122 -8 -151 -52 -190 -12 -11 -111 -76 -218 -144 -107 -67 -205 -132 -217
-143 -31 -27 -30 -77 0 -105 l23 -22 690 0 691 0 21 23 c28 30 29 78 1 103
-11 10 -116 80 -232 154 -143 92 -219 146 -234 169 l-23 34 0 552 c0 598 0
599 55 671 13 17 69 59 123 92 117 72 184 130 248 215 127 169 174 343 174
650 0 108 13 153 58 200 34 36 58 48 155 81 152 51 262 120 378 235 168 169
234 310 289 622 17 96 33 182 36 192 5 16 30 17 349 17 234 0 352 4 369 11 41
19 49 55 37 166 -18 172 -95 383 -174 478 -35 43 -84 48 -117 13 -28 -30 -25
-63 10 -117 64 -101 130 -289 130 -373 l0 -28 -81 0 c-74 0 -80 2 -74 18 18
40 18 152 0 199 -34 90 -141 173 -221 173 -29 0 -32 3 -37 45 -13 88 -79 174
-164 211 -80 35 -212 16 -271 -39 -19 -18 -26 -19 -40 -9 -85 62 -153 80 -233
63 -62 -14 -80 -23 -131 -69 -47 -43 -76 -96 -85 -157 -5 -42 -8 -45 -37 -45
-47 0 -127 -42 -169 -89 -72 -80 -91 -182 -51 -284 5 -15 -3 -17 -75 -17 l-81
0 0 33 c0 99 80 303 161 414 117 159 297 280 498 335 61 17 105 21 221 21 129
0 155 -3 235 -27 50 -15 132 -49 183 -77 99 -52 125 -58 160 -33 16 11 22 25
22 55 0 34 -5 42 -42 70 -70 50 -199 108 -304 135 -126 33 -311 41 -429 19z
m20 -439 c65 -27 75 -60 75 -241 l0 -160 -106 105 c-121 121 -138 147 -131
202 6 45 29 75 72 94 39 17 48 17 90 0z m388 0 c67 -28 93 -94 63 -157 -9 -19
-64 -82 -122 -139 l-105 -105 3 171 c3 189 7 201 73 230 38 17 49 17 88 0z
m-655 -280 c15 -8 74 -62 132 -121 l105 -106 -167 3 c-188 3 -212 11 -235 81
-34 101 71 193 165 143z m968 -20 c29 -29 34 -41 34 -80 0 -27 -7 -58 -17 -73
-29 -44 -68 -53 -235 -53 l-153 0 110 111 c61 61 119 115 130 119 11 5 37 9
59 9 30 1 45 -6 72 -33z m-1071 -901 c55 -8 175 -33 268 -56 l167 -41 -32 -40
c-78 -98 -236 -201 -383 -248 -129 -41 -209 -106 -261 -210 -26 -52 -28 -65
-36 -249 -10 -269 -27 -339 -112 -470 -86 -133 -210 -228 -361 -278 -111 -37
-274 -39 -385 -4 -210 64 -375 224 -452 438 -17 48 -22 94 -28 268 -9 249 -21
291 -102 380 -59 65 -107 94 -203 125 -157 50 -300 146 -394 262 -28 34 -49
63 -47 65 2 2 59 -10 127 -27 212 -52 330 -63 629 -57 290 5 336 11 600 77
193 48 301 69 427 80 134 12 457 4 578 -15z"/>
<path d="M2853 3970 c-26 -11 -43 -40 -43 -74 0 -63 89 -90 129 -40 27 34 26
57 -1 88 -27 29 -55 38 -85 26z"/>
<path d="M1135 3948 c-50 -27 -60 -80 -22 -116 33 -31 80 -29 106 4 34 43 26
86 -20 109 -33 18 -38 18 -64 3z"/>
<path d="M1733 3950 c-26 -11 -43 -40 -43 -74 0 -63 89 -90 129 -40 12 15 21
33 21 40 0 26 -23 62 -47 73 -28 13 -30 13 -60 1z"/>
<path d="M2297 3942 c-24 -26 -22 -85 3 -107 48 -43 120 -10 120 55 0 23 -7
43 -18 53 -25 23 -85 22 -105 -1z"/>
<path d="M3525 3948 c-48 -28 -57 -70 -24 -112 52 -66 153 -1 123 79 -6 15
-54 45 -71 45 -4 0 -17 -6 -28 -12z"/>
<path d="M770 3880 c-35 -35 -21 -102 25 -120 33 -13 80 5 94 36 16 35 14 47
-10 78 -26 33 -79 36 -109 6z"/>
<path d="M2032 3883 c-21 -8 -43 -61 -36 -88 14 -54 84 -73 122 -32 56 60 -9
151 -86 120z"/>
<path d="M3193 3875 c-32 -14 -43 -32 -43 -71 0 -61 90 -88 129 -38 26 33 26
54 1 86 -25 32 -49 39 -87 23z"/>
<path d="M2582 3853 c-7 -3 -19 -18 -28 -35 -13 -25 -13 -35 -3 -59 21 -52 68
-63 113 -28 66 52 -1 155 -82 122z"/>
<path d="M1411 3806 c-49 -52 -1 -136 68 -121 59 13 77 96 28 130 -31 22 -70
18 -96 -9z"/>
</g>
</svg>
