<?xml version="1.0" standalone="no"?>
<!DOCTYPE svg PUBLIC "-//W3C//DTD SVG 20010904//EN"
 "http://www.w3.org/TR/2001/REC-SVG-20010904/DTD/svg10.dtd">
<svg version="1.0" xmlns="http://www.w3.org/2000/svg"
 width="512.000000pt" height="512.000000pt" viewBox="0 0 512.000000 512.000000"
 preserveAspectRatio="xMidYMid meet">

<g transform="translate(0.000000,512.000000) scale(0.100000,-0.100000)"
fill="#000000" stroke="none">
<path d="M3356 4864 c-373 -90 -511 -555 -249 -835 l44 -47 -64 -45 c-36 -26
-83 -68 -105 -95 -22 -26 -153 -241 -291 -477 l-250 -429 -138 -99 -137 -100
-216 20 c-216 21 -306 19 -373 -6 -16 -6 -30 -11 -32 -11 -2 0 -9 24 -15 53
-50 244 -292 417 -531 380 -242 -38 -410 -233 -409 -477 0 -75 16 -142 54
-228 8 -17 -4 -18 -158 -18 -184 0 -207 -5 -270 -60 -61 -54 -81 -102 -80
-195 l0 -80 -42 -28 c-28 -18 -51 -45 -68 -79 l-26 -52 0 -345 c0 -382 2 -393
66 -453 67 -63 -129 -58 2494 -58 2623 0 2427 -5 2494 58 64 60 66 71 66 453
l0 345 -26 53 c-37 73 -86 104 -174 109 l-68 4 -47 68 c-89 132 -227 241 -371
296 -75 29 -195 53 -261 54 l-42 0 -3 493 c-4 427 -6 500 -21 552 -40 141
-125 265 -239 350 l-67 50 49 51 c84 89 130 206 130 333 0 141 -47 257 -144
356 -126 128 -307 181 -480 139z m272 -170 c72 -35 137 -100 170 -172 23 -49
27 -70 27 -152 0 -84 -3 -102 -28 -152 -36 -74 -119 -150 -195 -178 -78 -29
-205 -26 -274 8 -200 98 -270 350 -145 524 103 145 292 197 445 122z m-184
-821 c54 -3 110 -1 143 6 52 12 55 12 121 -22 40 -20 67 -40 66 -49 -1 -8 -43
-153 -94 -322 l-94 -307 -279 -262 c-154 -144 -284 -262 -288 -261 -5 1 -16 2
-24 3 -14 1 -15 51 -13 444 3 435 3 443 26 499 13 31 41 81 63 111 67 90 207
183 259 171 14 -3 65 -8 114 -11z m489 -250 c42 -94 62 -293 38 -369 -6 -16
-26 -82 -46 -146 l-35 -117 -318 -299 c-174 -164 -327 -304 -339 -310 -34 -19
-69 -14 -101 13 -36 30 -47 68 -32 105 6 16 148 156 315 313 l303 286 26 83
c14 46 54 176 88 291 35 114 66 207 69 207 3 0 18 -26 32 -57z m-1159 -802
c-84 -145 -66 -136 -233 -121 -104 9 -139 16 -131 24 6 6 41 34 78 61 61 46
75 63 155 200 48 83 109 186 135 230 l47 80 3 -189 2 -188 -56 -97z m-1611
189 c125 -39 214 -151 225 -285 l5 -66 -58 -52 c-124 -111 -199 -142 -370
-153 l-106 -7 -31 29 c-17 16 -43 56 -59 89 -24 49 -29 73 -29 131 0 95 22
153 83 220 96 105 205 135 340 94z m2817 -301 l0 -151 -47 6 c-27 3 -79 8
-118 11 -147 13 -148 0 10 151 77 73 143 133 148 134 4 0 7 -68 7 -151z
m-1847 -121 l347 -32 0 -218 0 -218 -762 0 -762 0 -23 -22 c-28 -26 -30 -67
-4 -99 l19 -24 1993 -3 c1834 -2 1994 -3 2011 -19 17 -15 18 -39 18 -341 0
-289 -2 -327 -17 -344 -15 -17 -103 -18 -2391 -18 -2196 0 -2377 1 -2394 17
-17 15 -18 39 -18 341 0 289 2 327 17 344 15 17 37 18 269 18 268 0 293 4 313
47 16 34 14 47 -10 77 l-20 26 -198 0 c-188 0 -199 1 -217 21 -13 14 -19 36
-19 66 0 36 5 49 27 68 26 23 28 23 400 28 411 5 430 8 559 72 36 19 106 69
155 111 48 42 111 88 140 101 53 24 149 42 194 37 14 -2 181 -18 373 -36z
m662 -63 c77 -8 142 -15 145 -15 3 0 6 -25 7 -54 4 -139 129 -248 268 -233 73
7 102 25 218 133 56 51 108 94 117 94 72 0 737 -74 780 -86 115 -33 260 -130
320 -215 l21 -29 -1015 0 -1016 0 0 210 c0 116 3 210 8 210 4 0 70 -7 147 -15z"/>
<path d="M404 925 l-25 -25 3 -258 3 -259 28 -41 c73 -111 218 -133 314 -49
68 60 73 81 73 360 l0 248 -25 24 c-31 32 -69 32 -100 0 l-25 -24 0 -236 c0
-222 -1 -236 -20 -255 -25 -25 -55 -25 -80 0 -19 19 -20 33 -20 255 l0 236
-25 24 c-31 32 -69 32 -101 0z"/>
<path d="M4345 925 l-25 -24 0 -248 c0 -279 5 -300 73 -360 96 -84 241 -62
314 49 l28 41 3 259 3 258 -25 25 c-32 32 -70 32 -101 0 l-25 -24 0 -236 c0
-222 -1 -236 -20 -255 -25 -25 -55 -25 -80 0 -19 19 -20 33 -20 255 l0 236
-25 24 c-13 14 -36 25 -50 25 -14 0 -37 -11 -50 -25z"/>
</g>
</svg>
