<?xml version="1.0" standalone="no"?>
<!DOCTYPE svg PUBLIC "-//W3C//DTD SVG 20010904//EN"
 "http://www.w3.org/TR/2001/REC-SVG-20010904/DTD/svg10.dtd">
<svg version="1.0" xmlns="http://www.w3.org/2000/svg"
 width="512.000000pt" height="512.000000pt" viewBox="0 0 512.000000 512.000000"
 preserveAspectRatio="xMidYMid meet">

<g transform="translate(0.000000,512.000000) scale(0.100000,-0.100000)"
fill="#000000" stroke="none">
<path d="M2458 5110 c-136 -23 -314 -114 -397 -204 -49 -52 -21 -136 44 -136
12 0 53 25 91 55 161 130 343 173 528 125 202 -51 358 -198 423 -395 24 -74
26 -96 31 -312 4 -201 2 -233 -10 -233 -17 0 -39 23 -58 58 -6 13 -18 69 -26
124 -16 114 -34 160 -78 193 -73 55 -157 52 -244 -7 -78 -54 -170 -71 -257
-47 -22 6 -71 29 -108 51 -56 34 -77 41 -120 41 -60 0 -104 -20 -140 -62 -32
-38 -43 -74 -57 -181 -13 -97 -31 -142 -66 -165 l-24 -15 0 213 c0 117 5 239
11 271 6 32 8 70 4 83 -8 32 -59 54 -96 41 -54 -19 -69 -104 -69 -397 l0 -227
-44 -32 c-64 -44 -97 -98 -103 -170 -10 -106 33 -187 121 -228 28 -13 65 -24
82 -24 28 0 32 -4 59 -72 54 -140 137 -243 259 -323 l76 -49 0 -47 c0 -45 -2
-48 -32 -58 -18 -5 -93 -28 -167 -51 -181 -56 -227 -88 -284 -194 -22 -40 -22
-48 -25 -515 l-3 -474 -34 -38 c-61 -68 -105 -183 -105 -276 l0 -43 -597 0
c-585 0 -598 0 -640 -21 -29 -14 -52 -35 -68 -63 -24 -40 -25 -51 -25 -195 0
-105 4 -162 14 -184 26 -64 102 -107 188 -107 l37 0 3 -358 3 -359 29 -37 c44
-58 73 -66 247 -66 136 0 155 2 189 21 63 36 80 79 80 204 0 58 -5 115 -11
126 -25 48 -110 43 -130 -8 -5 -13 -9 -62 -9 -109 l0 -84 -125 0 -125 0 0 335
0 335 125 0 125 0 0 -89 c0 -74 3 -92 21 -115 27 -34 77 -36 107 -3 19 20 22
35 22 115 l0 92 270 0 270 0 0 -55 c0 -99 40 -156 120 -169 l40 -6 0 -95 0
-94 -37 -11 c-101 -27 -162 -115 -150 -216 7 -65 46 -117 111 -149 54 -26 56
-27 238 -23 208 4 232 10 302 88 64 71 69 93 74 308 l4 192 218 0 217 0 5
-192 c5 -215 11 -238 74 -308 70 -78 94 -84 302 -88 180 -4 184 -3 236 22 168
82 145 318 -35 366 l-39 11 0 94 0 95 40 6 c80 13 120 70 120 169 l0 55 270 0
270 0 0 -351 c0 -339 1 -353 21 -389 39 -68 74 -80 248 -80 174 0 203 8 247
66 l29 37 3 359 3 358 37 0 c86 0 162 43 188 107 10 22 14 79 14 184 0 144 -1
155 -25 195 -16 28 -39 49 -68 63 -42 21 -55 21 -639 21 l-595 0 -6 68 c-6 73
-36 166 -67 205 -18 23 -20 42 -20 237 0 211 0 211 -25 235 -33 34 -77 33
-104 -1 -19 -24 -21 -40 -21 -170 0 -79 -2 -144 -5 -144 -3 0 -32 7 -65 17
l-60 16 0 364 c0 350 -1 364 -20 383 -30 30 -83 27 -109 -6 -20 -26 -21 -38
-21 -385 l0 -359 -377 2 -378 3 -5 368 c-5 350 -6 369 -24 383 -33 23 -82 18
-105 -12 -20 -26 -21 -38 -21 -385 l0 -359 -28 0 c-15 0 -42 -4 -60 -9 l-32
-10 0 407 c0 377 1 410 19 442 10 19 29 42 42 52 13 10 102 42 197 72 131 40
181 60 203 82 30 29 49 78 49 127 0 25 2 27 28 20 35 -9 199 -9 235 0 26 7 27
6 27 -34 0 -50 31 -110 69 -132 15 -9 102 -39 192 -67 233 -73 249 -92 249
-283 0 -106 2 -115 23 -135 33 -31 80 -29 106 4 19 24 21 40 21 145 0 173 -37
262 -136 327 -47 32 -58 36 -256 97 l-118 36 0 49 c0 47 1 49 52 80 69 43 170
140 215 209 20 30 49 87 64 125 27 71 28 71 72 77 56 9 82 22 129 67 99 95 82
271 -33 347 l-46 30 -5 255 c-6 286 -17 351 -82 476 -47 92 -64 117 -133 187
-172 176 -417 257 -655 217z m-67 -896 c136 -68 299 -56 439 30 87 54 91 50
111 -104 14 -112 40 -170 101 -225 54 -48 122 -75 192 -75 44 -1 66 -13 84
-47 17 -31 15 -57 -8 -86 -17 -22 -29 -25 -95 -29 -90 -4 -101 -13 -121 -98
-55 -239 -270 -405 -519 -403 -243 1 -457 175 -505 410 -16 73 -43 93 -126 93
-76 0 -104 20 -104 74 0 57 26 78 109 87 169 18 256 117 280 319 14 116 27
131 80 98 20 -12 57 -32 82 -44z m212 -2528 c42 -17 84 -67 97 -115 6 -25 9
-184 8 -433 l-3 -393 -458 -3 -458 -2 3 382 3 383 27 51 c30 58 73 98 133 125
36 17 71 19 328 19 221 0 295 -3 320 -14z m562 -5 c60 -27 103 -67 133 -125
l27 -51 3 -382 3 -383 -235 0 -235 0 -3 428 c-3 410 -4 429 -25 480 l-21 52
156 0 c130 0 164 -4 197 -19z m-1525 -576 l0 -135 -574 0 c-316 0 -581 3 -590
6 -13 5 -16 26 -16 128 0 68 3 126 7 129 3 4 269 7 590 7 l583 0 0 -135z
m3018 6 c2 -93 -1 -126 -10 -133 -7 -4 -273 -8 -590 -8 l-578 0 0 135 0 135
588 -2 587 -3 3 -124z m-238 -626 l0 -335 -125 0 -125 0 0 335 0 335 125 0
125 0 0 -335z m-2230 -47 c-1 -176 -8 -221 -45 -257 -25 -26 -28 -26 -186 -29
-141 -3 -163 -1 -180 14 -25 23 -24 49 3 68 17 12 50 16 144 16 140 0 167 11
167 69 0 46 -31 73 -92 79 l-51 5 0 93 0 94 120 0 120 0 0 -152z m980 58 l0
-93 -51 -5 c-61 -6 -92 -33 -92 -79 0 -58 27 -69 167 -69 94 0 127 -4 144 -16
27 -19 28 -45 3 -68 -17 -15 -39 -17 -180 -14 -158 3 -161 3 -186 29 -37 36
-44 81 -45 257 l0 152 120 0 120 0 0 -94z"/>
<path d="M2330 3902 c-16 -13 -24 -32 -28 -70 -6 -62 10 -105 44 -121 35 -16
48 -14 78 10 24 19 26 27 26 90 0 56 -4 73 -20 89 -25 25 -71 26 -100 2z"/>
<path d="M2740 3902 c-31 -25 -40 -114 -16 -160 21 -41 68 -52 105 -25 23 18
26 28 29 91 2 61 0 74 -18 92 -25 25 -71 26 -100 2z"/>
<path d="M2381 3524 c-46 -59 -18 -105 80 -135 131 -40 299 -9 338 62 12 21
12 29 0 54 -20 43 -58 53 -117 32 -58 -21 -141 -22 -189 -2 -54 23 -88 19
-112 -11z"/>
<path d="M1193 3284 c-23 -23 -25 -31 -20 -79 6 -56 26 -101 82 -179 46 -63
46 -99 0 -162 -71 -99 -80 -122 -80 -209 0 -87 9 -110 80 -209 21 -29 35 -60
35 -78 0 -36 40 -78 75 -78 15 0 37 11 52 26 23 23 25 31 20 75 -7 56 -32 113
-83 184 -48 67 -44 107 18 193 94 126 88 238 -17 386 -21 29 -35 60 -35 78 0
36 -40 78 -75 78 -15 0 -37 -11 -52 -26z"/>
<path d="M3825 3285 c-15 -14 -25 -36 -25 -53 0 -15 -15 -50 -32 -77 -65 -96
-77 -121 -84 -172 -9 -76 11 -143 64 -215 62 -85 66 -126 19 -193 -58 -82 -76
-121 -83 -178 -6 -51 -4 -58 19 -81 15 -15 37 -26 52 -26 35 0 75 42 75 78 0
18 14 49 35 78 71 99 80 122 80 209 0 87 -9 110 -80 209 -23 31 -35 59 -35 81
0 22 12 50 35 81 56 78 76 123 82 179 5 48 3 56 -20 79 -33 33 -71 33 -102 1z"/>
<path d="M703 2704 c-23 -23 -25 -31 -20 -79 6 -55 25 -98 83 -179 45 -63 45
-99 -1 -162 -71 -99 -80 -122 -80 -209 0 -86 8 -106 81 -209 20 -28 34 -60 34
-78 0 -36 40 -78 75 -78 15 0 37 11 52 26 23 23 25 31 20 79 -6 56 -26 101
-83 180 -48 67 -44 107 18 193 95 128 90 236 -17 386 -21 29 -35 60 -35 78 0
36 -40 78 -75 78 -15 0 -37 -11 -52 -26z"/>
<path d="M4315 2705 c-15 -14 -25 -36 -25 -53 0 -18 -14 -49 -35 -78 -107
-150 -112 -258 -17 -386 62 -86 66 -126 18 -193 -57 -79 -77 -124 -83 -180 -5
-48 -3 -56 20 -79 15 -15 37 -26 52 -26 35 0 75 42 75 78 0 18 14 50 34 78 73
103 81 123 81 209 0 87 -9 110 -80 209 -46 63 -46 99 -1 162 58 81 77 124 83
179 5 48 3 56 -20 79 -33 33 -71 33 -102 1z"/>
</g>
</svg>
