<?xml version="1.0" standalone="no"?>
<!DOCTYPE svg PUBLIC "-//W3C//DTD SVG 20010904//EN"
 "http://www.w3.org/TR/2001/REC-SVG-20010904/DTD/svg10.dtd">
<svg version="1.0" xmlns="http://www.w3.org/2000/svg"
 width="512.000000pt" height="512.000000pt" viewBox="0 0 512.000000 512.000000"
 preserveAspectRatio="xMidYMid meet">

<g transform="translate(0.000000,512.000000) scale(0.100000,-0.100000)"
fill="#000000" stroke="none">
<path d="M393 5107 c-13 -7 -65 -80 -117 -163 -142 -227 -141 -225 -141 -324
0 -73 4 -92 27 -136 54 -103 148 -158 268 -159 60 0 85 5 123 25 110 55 170
153 171 274 0 84 -5 94 -142 314 -114 184 -133 200 -189 169z m113 -329 c59
-97 68 -118 68 -160 0 -83 -62 -143 -147 -143 -89 0 -147 61 -147 153 0 30 15
63 72 155 39 64 75 114 78 112 4 -3 38 -55 76 -117z"/>
<path d="M3082 5113 c-34 -14 -42 -59 -42 -253 l0 -190 -75 0 -75 0 0 63 c-1
130 -80 221 -204 234 -88 9 -175 -39 -219 -122 -22 -39 -22 -49 -25 -590 -2
-302 0 -560 3 -573 3 -12 14 -31 25 -42 18 -18 34 -20 194 -20 160 0 175 2
200 21 l26 20 0 430 0 429 75 0 75 0 0 -415 c0 -437 2 -462 45 -479 9 -3 70
-6 136 -6 l119 0 0 -562 c0 -310 4 -589 10 -621 13 -81 46 -143 110 -208 74
-75 143 -102 260 -103 75 -1 93 3 150 30 101 48 168 124 203 228 15 44 17 116
17 643 l0 593 124 0 c110 0 126 2 150 21 l26 20 0 430 0 429 75 0 75 0 0 -415
c0 -437 2 -462 45 -479 9 -3 92 -6 184 -6 155 0 170 2 195 21 l26 20 0 567 c0
529 -2 570 -19 607 -52 113 -178 164 -287 116 -92 -41 -132 -101 -141 -212
l-6 -69 -73 0 -74 0 0 204 0 205 -26 20 c-26 21 -34 21 -648 20 -341 0 -627
-3 -634 -6z m258 -218 l0 -75 -75 0 -75 0 0 75 0 75 75 0 75 0 0 -75z m600 0
l0 -75 -225 0 -225 0 0 75 0 75 225 0 225 0 0 -75z m300 0 l0 -75 -75 0 -75 0
0 75 0 75 75 0 75 0 0 -75z m-1526 -96 l26 -20 0 -505 0 -504 -75 0 -75 0 0
490 c0 414 2 495 15 520 23 45 66 53 109 19z m2100 0 l26 -20 0 -505 0 -504
-75 0 -75 0 0 490 c0 414 2 495 15 520 23 45 66 53 109 19z m-1474 -429 l0
-300 -75 0 -75 0 0 300 0 300 75 0 75 0 0 -300z m600 0 l0 -300 -225 0 -225 0
0 300 0 300 225 0 225 0 0 -300z m300 0 l0 -300 -75 0 -75 0 0 300 0 300 75 0
75 0 0 -300z m-900 -525 l0 -75 -75 0 -75 0 0 75 0 75 75 0 75 0 0 -75z m600
0 l0 -75 -225 0 -225 0 0 75 0 75 225 0 225 0 0 -75z m300 0 l0 -75 -75 0 -75
0 0 75 0 75 75 0 75 0 0 -75z m-300 -812 c0 -549 -2 -591 -19 -628 -52 -113
-178 -164 -287 -116 -59 27 -89 53 -117 106 -22 39 -22 48 -25 633 l-3 592
226 0 225 0 0 -587z"/>
<path d="M1658 4654 c-205 -49 -368 -228 -399 -435 -52 -351 275 -660 623
-588 139 29 288 140 355 266 111 207 74 450 -93 618 -129 129 -313 182 -486
139z m275 -172 c291 -137 289 -537 -3 -676 -57 -27 -75 -31 -150 -30 -117 1
-186 28 -260 103 -92 94 -130 204 -110 324 39 245 301 384 523 279z"/>
<path d="M392 4163 c-7 -3 -19 -18 -28 -35 -14 -26 -14 -44 -4 -129 22 -191
81 -343 190 -487 126 -168 288 -283 485 -345 44 -14 103 -28 130 -32 28 -4 58
-9 68 -12 16 -4 17 -49 17 -769 0 -652 2 -769 15 -793 17 -34 33 -41 91 -41
l44 0 0 -677 c0 -521 3 -684 13 -703 10 -21 41 -35 177 -82 91 -31 175 -57
186 -57 12 -1 33 8 48 20 32 25 36 77 7 103 -10 9 -76 36 -147 60 l-129 43 -3
646 -2 647 225 0 225 0 0 -677 c0 -521 3 -684 13 -703 10 -21 41 -35 177 -82
91 -31 175 -57 186 -57 12 -1 33 8 48 20 32 25 36 77 7 103 -10 9 -76 36 -147
60 l-129 43 -3 646 -2 647 49 0 c34 0 56 6 74 21 l27 20 2 281 3 280 76 22
c225 65 373 238 411 480 27 176 -53 388 -192 505 -68 57 -166 107 -241 123
-58 12 -62 14 -84 59 -32 62 -106 125 -168 144 -77 23 -594 22 -666 -2 -65
-20 -125 -72 -156 -133 l-24 -47 -58 8 c-375 51 -664 369 -698 768 -7 71 -11
84 -33 101 -24 19 -53 24 -80 13z m1689 -858 c16 -9 39 -30 49 -48 19 -30 20
-52 20 -359 l0 -328 -375 0 -375 0 0 323 c0 356 1 365 65 407 28 19 48 20 308
20 232 0 283 -3 308 -15z m341 -237 c243 -128 298 -462 108 -662 -52 -55 -140
-108 -197 -121 l-33 -7 0 417 0 417 33 -7 c17 -4 58 -21 89 -37z m-572 -1023
l0 -375 -225 0 -225 0 0 375 0 375 225 0 225 0 0 -375z m300 0 l0 -375 -75 0
-75 0 0 375 0 375 75 0 75 0 0 -375z"/>
</g>
</svg>
