<?xml version="1.0" standalone="no"?>
<!DOCTYPE svg PUBLIC "-//W3C//DTD SVG 20010904//EN"
 "http://www.w3.org/TR/2001/REC-SVG-20010904/DTD/svg10.dtd">
<svg version="1.0" xmlns="http://www.w3.org/2000/svg"
 width="512.000000pt" height="512.000000pt" viewBox="0 0 512.000000 512.000000"
 preserveAspectRatio="xMidYMid meet">

<g transform="translate(0.000000,512.000000) scale(0.100000,-0.100000)"
fill="#000000" stroke="none">
<path d="M1034 5094 c-99 -17 -237 -61 -335 -108 -308 -147 -557 -441 -649
-767 -48 -170 -50 -216 -50 -1027 l0 -763 25 -24 c30 -31 56 -31 139 0 37 14
68 25 71 25 2 0 5 -354 7 -787 l4 -788 27 -100 c49 -181 133 -327 259 -453
281 -282 700 -367 1069 -218 150 60 312 185 411 315 62 82 140 240 170 346 23
80 23 82 26 883 2 606 6 802 14 802 7 0 47 -12 89 -27 87 -31 124 -27 146 17
16 32 19 1459 3 1590 -53 443 -326 817 -727 993 -219 96 -471 129 -699 91z
m422 -159 c363 -74 680 -355 802 -710 52 -153 54 -180 59 -682 3 -275 1 -473
-4 -473 -5 0 -56 16 -114 35 -640 217 -1286 219 -1915 5 -65 -22 -122 -40
-126 -40 -12 0 -10 805 2 918 61 565 545 989 1106 967 61 -2 146 -11 190 -20z
m130 -1840 c175 -23 367 -69 559 -133 l170 -57 3 -167 c1 -93 -1 -168 -6 -168
-4 0 -76 22 -158 49 -616 201 -1268 198 -1870 -10 -62 -21 -118 -39 -124 -39
-6 0 -10 61 -10 165 l0 165 27 11 c260 102 564 175 833 198 138 13 427 5 576
-14z m-66 -496 c167 -16 361 -55 508 -101 l33 -10 -4 -821 c-3 -930 2 -860
-87 -1042 -163 -329 -522 -513 -880 -451 -173 30 -322 109 -450 236 -142 142
-218 305 -240 510 -6 61 -10 395 -10 831 l0 729 23 10 c38 16 207 58 317 79
254 47 510 57 790 30z"/>
<path d="M3695 5095 c-440 -69 -810 -374 -968 -797 -72 -192 -77 -262 -77
-1113 0 -798 -1 -780 53 -800 27 -9 42 -5 175 43 9 3 12 -144 12 -714 0 -739
5 -853 40 -983 96 -351 394 -627 757 -700 500 -102 983 192 1140 696 l28 88 3
808 c2 694 5 807 17 807 8 0 44 -11 81 -25 83 -31 109 -31 139 0 l25 24 0 763
c0 811 -2 857 -50 1027 -92 326 -341 620 -649 767 -225 108 -486 147 -726 109z
m345 -150 c240 -36 438 -136 609 -306 178 -179 283 -399 311 -651 12 -113 14
-918 2 -918 -4 0 -55 16 -113 35 -639 217 -1281 219 -1914 5 -65 -22 -123 -40
-128 -40 -5 0 -7 201 -4 473 5 502 7 529 59 682 168 491 669 798 1178 720z
m195 -1850 c184 -24 361 -66 550 -130 l180 -60 3 -167 c1 -93 -1 -168 -6 -168
-5 0 -76 22 -158 49 -612 201 -1268 198 -1870 -10 -62 -21 -118 -39 -124 -39
-7 0 -10 57 -8 167 l3 167 140 49 c241 84 476 135 715 156 135 12 434 5 575
-14z m-60 -496 c118 -12 325 -50 445 -83 l85 -23 0 -819 0 -819 -23 -78 c-82
-284 -293 -497 -577 -583 -77 -23 -108 -27 -220 -28 -160 0 -233 16 -370 83
-174 85 -294 205 -379 376 -85 171 -80 106 -83 1037 -3 786 -3 827 14 832 374
109 729 143 1108 105z"/>
</g>
</svg>
