<?xml version="1.0" standalone="no"?>
<!DOCTYPE svg PUBLIC "-//W3C//DTD SVG 20010904//EN"
 "http://www.w3.org/TR/2001/REC-SVG-20010904/DTD/svg10.dtd">
<svg version="1.0" xmlns="http://www.w3.org/2000/svg"
 width="512.000000pt" height="512.000000pt" viewBox="0 0 512.000000 512.000000"
 preserveAspectRatio="xMidYMid meet">

<g transform="translate(0.000000,512.000000) scale(0.100000,-0.100000)"
fill="#000000" stroke="none">
<path d="M2523 4898 c-28 -14 -136 -141 -200 -238 -140 -210 -211 -436 -184
-585 29 -159 139 -290 281 -338 l45 -15 3 -54 3 -54 -526 -81 c-473 -73 -529
-83 -551 -104 l-24 -22 0 -489 c0 -268 -3 -488 -6 -488 -3 0 -29 21 -58 47
-74 67 -164 123 -198 123 -39 0 -124 -57 -217 -145 -85 -80 -143 -159 -195
-262 -37 -75 -86 -227 -86 -269 0 -23 -2 -24 -42 -17 -24 5 -93 8 -153 8 -140
0 -152 -7 -189 -105 -132 -358 -17 -787 276 -1031 l59 -49 -280 0 -281 0 0
-90 0 -90 103 0 102 0 80 -158 c57 -112 87 -161 105 -169 34 -17 3260 -19
3309 -2 17 6 36 19 41 29 6 10 10 82 10 159 l0 141 275 0 275 0 74 -148 c40
-81 84 -156 96 -167 21 -19 36 -20 227 -20 l205 0 24 28 c23 27 24 35 24 168
l0 139 40 0 c51 0 105 22 119 48 7 13 11 95 11 216 0 190 -1 196 -23 222 -20
23 -34 28 -85 32 l-60 4 45 62 c111 149 148 325 104 498 -36 141 -104 244
-223 339 l-48 37 34 21 c58 36 152 146 189 220 146 292 34 645 -253 795 -116
61 -108 60 -595 66 l-450 5 -5 325 c-3 179 -7 326 -8 327 -1 1 -15 9 -32 18
-28 14 -60 10 -522 -60 -271 -42 -503 -78 -516 -81 -22 -4 -23 -2 -20 36 3 40
5 42 55 60 179 63 297 254 277 450 -19 193 -126 412 -301 621 -79 95 -110 111
-160 87z m97 -283 c143 -194 216 -399 189 -527 -14 -63 -63 -134 -116 -165
l-43 -25 0 76 0 76 -90 0 -89 0 -3 -76 -3 -76 -50 34 c-73 51 -110 125 -108
221 3 131 72 298 193 462 30 41 57 75 60 75 3 0 30 -34 60 -75z m960 -1255 l0
-250 -171 0 c-124 0 -188 -4 -233 -16 -255 -66 -446 -311 -446 -574 0 -130 59
-290 140 -382 22 -25 40 -48 40 -51 0 -2 -22 -7 -48 -11 -61 -8 -193 -71 -252
-121 -250 -208 -291 -560 -97 -821 l45 -62 -60 -4 c-51 -4 -65 -9 -85 -32 -22
-26 -23 -32 -23 -226 0 -192 1 -200 23 -225 18 -22 34 -27 85 -32 l62 -6 0
-83 0 -84 -315 0 -315 0 42 85 42 84 101 3 100 3 0 85 0 85 -278 5 -277 5 55
44 c231 184 365 526 326 826 -7 49 -26 131 -42 182 -40 124 -46 128 -204 128
-66 0 -134 -3 -151 -7 -31 -7 -32 -6 -38 35 -4 23 -20 82 -37 131 l-30 89 1
565 c0 311 1 567 3 568 3 3 1995 312 2020 313 16 1 17 -17 17 -249z m795 -444
c96 -44 151 -138 143 -243 -7 -96 -56 -170 -142 -216 -40 -22 -51 -22 -512
-25 l-471 -3 -32 26 c-40 34 -43 84 -6 120 l24 25 316 0 315 0 0 85 0 85 -327
0 c-308 0 -331 -2 -373 -21 -93 -42 -150 -129 -149 -229 0 -103 44 -177 131
-226 l53 -29 470 -3 c325 -2 488 0 530 8 66 13 154 55 201 97 139 123 184 331
106 497 -31 65 -31 67 -9 61 97 -28 201 -112 251 -204 131 -241 -2 -547 -269
-616 -88 -23 -1312 -23 -1400 0 -215 56 -353 264 -317 476 28 163 133 288 286
341 46 16 102 17 591 18 l540 0 50 -24z m-3161 -588 c124 -124 209 -285 223
-424 l6 -52 -46 -20 c-66 -29 -173 -101 -235 -157 l-53 -48 -37 35 c-58 56
-152 120 -230 157 -68 33 -71 35 -66 65 34 191 110 335 245 459 39 37 80 67
91 67 10 0 56 -37 102 -82z m2991 -433 c201 -100 187 -396 -22 -471 -30 -10
-141 -13 -506 -14 l-468 0 -24 25 c-27 27 -33 79 -12 106 28 37 50 39 361 39
l306 0 0 85 0 85 -313 0 c-240 0 -325 -3 -360 -14 -227 -68 -238 -395 -15
-480 39 -15 96 -17 548 -14 l505 3 68 32 c227 108 315 387 190 600 l-25 43 61
0 c227 0 403 -143 443 -360 33 -177 -69 -368 -240 -452 l-67 -33 -859 -3
c-958 -3 -911 -6 -1023 67 -180 116 -243 351 -146 545 51 101 161 191 272 222
35 9 188 12 666 11 594 -2 622 -3 660 -22z m-3656 -156 c143 -23 286 -94 401
-197 52 -48 54 -51 41 -74 -90 -147 -133 -302 -134 -478 0 -69 5 -147 12 -174
6 -27 10 -50 9 -52 -2 -1 -29 8 -61 21 -295 120 -492 430 -474 745 3 47 13
115 22 153 l17 67 52 0 c28 0 80 -5 115 -11z m1297 -32 c21 -61 37 -205 30
-271 -18 -161 -82 -320 -176 -433 -136 -164 -359 -273 -560 -273 l-77 0 -18
78 c-25 104 -24 260 3 363 38 143 125 286 233 383 132 119 334 198 493 193 59
-2 59 -2 72 -40z m3104 -892 l0 -85 -1195 0 -1195 0 0 85 0 85 1195 0 1195 0
0 -85z m-3172 -350 l-42 -85 -628 0 -628 0 -40 80 c-22 44 -40 82 -40 85 0 3
319 5 710 5 l710 0 -42 -85z m1232 80 c0 -3 -18 -41 -40 -85 l-40 -80 -100 0
-100 0 0 85 0 85 140 0 c77 0 140 -2 140 -5z m570 -80 l0 -85 -225 0 c-124 0
-225 2 -225 5 0 3 18 41 40 85 l40 80 185 0 185 0 0 -85z m1200 0 l0 -86 -102
3 -103 3 -43 83 -43 82 146 0 145 0 0 -85z"/>
<path d="M1710 2770 l0 -340 85 0 85 0 0 340 0 340 -85 0 -85 0 0 -340z"/>
<path d="M1710 2175 l0 -85 85 0 85 0 0 85 0 85 -85 0 -85 0 0 -85z"/>
</g>
</svg>
