<?xml version="1.0" standalone="no"?>
<!DOCTYPE svg PUBLIC "-//W3C//DTD SVG 20010904//EN"
 "http://www.w3.org/TR/2001/REC-SVG-20010904/DTD/svg10.dtd">
<svg version="1.0" xmlns="http://www.w3.org/2000/svg"
 width="512.000000pt" height="512.000000pt" viewBox="0 0 512.000000 512.000000"
 preserveAspectRatio="xMidYMid meet">

<g transform="translate(0.000000,512.000000) scale(0.100000,-0.100000)"
fill="#000000" stroke="none">
<path d="M1169 4946 c-113 -44 -287 -194 -492 -426 -206 -232 -410 -514 -484
-669 l-37 -75 12 -101 c92 -795 754 -1834 1642 -2576 627 -523 1303 -862 1860
-930 92 -12 97 -11 155 12 236 97 794 545 1005 808 130 162 152 245 98 363
-41 89 -95 138 -326 292 -489 325 -840 506 -984 506 -118 0 -182 -45 -363
-257 -70 -81 -133 -149 -140 -151 -21 -5 -193 65 -313 129 -405 212 -720 527
-931 929 -63 122 -134 294 -129 315 2 6 69 69 149 138 213 183 258 246 259
360 0 151 -167 480 -496 973 -87 130 -173 249 -199 273 -86 79 -209 117 -286
87z m149 -428 c160 -226 339 -526 454 -763 32 -66 58 -123 58 -127 0 -3 -55
-53 -122 -110 -171 -143 -274 -244 -294 -286 -23 -49 -15 -113 37 -267 108
-325 350 -701 615 -955 287 -275 644 -488 978 -584 95 -28 140 -32 181 -16 40
15 125 101 267 267 71 84 132 153 136 153 4 0 61 -26 127 -58 238 -116 536
-293 760 -452 l115 -82 -81 -89 c-176 -193 -531 -490 -751 -628 l-67 -42 -68
12 c-882 147 -1977 959 -2648 1964 -284 426 -462 836 -524 1208 l-12 68 35 57
c122 201 433 574 631 758 49 46 91 83 92 84 1 0 37 -51 81 -112z"/>
<path d="M2720 4640 l0 -160 48 0 c208 0 484 -68 699 -170 367 -175 644 -446
823 -805 112 -225 160 -394 182 -647 l12 -138 158 0 158 0 0 44 c0 77 -19 247
-41 361 -59 309 -224 662 -420 899 -359 434 -839 697 -1387 761 -70 8 -151 15
-179 15 l-53 0 0 -160z"/>
<path d="M2720 3843 l0 -160 79 -7 c233 -19 436 -116 606 -290 162 -165 252
-361 271 -588 l7 -78 158 0 159 0 0 41 c0 138 -61 383 -131 521 -122 243 -338
462 -574 580 -149 75 -315 121 -484 134 l-91 7 0 -160z"/>
</g>
</svg>
