<?xml version="1.0" standalone="no"?>
<!DOCTYPE svg PUBLIC "-//W3C//DTD SVG 20010904//EN"
 "http://www.w3.org/TR/2001/REC-SVG-20010904/DTD/svg10.dtd">
<svg version="1.0" xmlns="http://www.w3.org/2000/svg"
 width="512.000000pt" height="512.000000pt" viewBox="0 0 512.000000 512.000000"
 preserveAspectRatio="xMidYMid meet">

<g transform="translate(0.000000,512.000000) scale(0.100000,-0.100000)"
fill="#000000" stroke="none">
<path d="M2505 5015 c-23 -22 -25 -31 -25 -127 l0 -104 -92 -18 c-161 -32
-495 -125 -723 -201 -516 -171 -912 -363 -1230 -596 -116 -86 -341 -306 -351
-343 -9 -38 3 -74 32 -92 23 -16 33 -16 147 0 432 58 765 60 944 5 63 -20 70
-20 172 -5 214 31 740 66 1004 66 l97 0 0 -880 0 -880 -376 0 c-267 0 -389 -4
-418 -12 -86 -26 -166 -136 -166 -228 0 -92 80 -202 166 -228 28 -8 134 -12
338 -12 l296 0 0 -410 c0 -405 0 -409 -21 -420 -39 -21 -59 -86 -59 -192 l0
-98 -49 0 -49 0 -71 285 c-62 249 -71 296 -71 376 0 116 -13 159 -67 219 -62
69 -102 80 -283 80 l-147 0 -114 498 c-93 406 -118 501 -136 520 l-22 22 -471
0 -471 0 -24 -25 c-14 -13 -25 -33 -25 -44 0 -11 54 -253 120 -539 l120 -520
0 -149 0 -148 -107 -287 -108 -288 -68 0 c-59 0 -71 -3 -92 -25 -16 -15 -25
-36 -25 -55 0 -19 9 -40 25 -55 l24 -25 2431 0 2431 0 24 25 c16 15 25 36 25
55 0 19 -9 40 -25 55 -21 22 -33 25 -92 25 l-68 0 -108 288 -107 287 0 148 0
149 120 520 c66 286 120 528 120 539 0 11 -11 31 -25 44 l-24 25 -471 0 -471
0 -22 -22 c-18 -19 -43 -116 -136 -520 l-114 -498 -145 0 c-179 0 -211 -9
-277 -75 -62 -61 -75 -101 -75 -224 0 -80 -9 -127 -71 -376 l-71 -285 -49 0
-49 0 0 98 c0 106 -20 169 -59 194 -21 13 -21 19 -21 420 l0 408 298 0 c349 0
366 3 435 80 63 70 81 146 55 232 -6 22 -31 62 -55 88 -71 79 -77 80 -515 80
l-378 0 0 880 0 880 98 0 c263 0 789 -35 1003 -66 102 -15 109 -15 172 5 179
55 512 53 944 -5 114 -16 124 -16 147 0 29 18 41 54 32 91 -10 39 -228 252
-348 341 -349 258 -787 463 -1383 649 -158 49 -543 149 -620 161 l-45 6 0 105
c0 97 -2 106 -25 128 -15 16 -36 25 -55 25 -19 0 -40 -9 -55 -25z m126 -416
c340 -171 701 -461 935 -749 88 -109 108 -140 92 -140 -8 0 -90 7 -183 15 -94
8 -276 19 -405 25 -449 19 -1021 9 -1425 -25 -93 -8 -175 -15 -183 -15 -16 0
4 31 92 140 185 228 457 464 723 629 94 58 268 151 283 151 6 0 38 -14 71 -31z
m-641 -117 c-313 -244 -522 -458 -690 -707 -28 -41 -54 -75 -58 -75 -4 0 -43
7 -87 15 -161 29 -539 29 -745 -1 l-35 -5 50 45 c182 167 563 383 940 532 153
60 620 219 655 223 3 0 -11 -12 -30 -27z m1523 -106 c503 -176 951 -412 1182
-622 l50 -45 -35 5 c-198 30 -584 30 -745 1 -44 -8 -83 -15 -87 -15 -4 0 -30
34 -58 75 -145 215 -386 471 -598 634 -67 52 -122 95 -122 97 0 5 277 -82 413
-130z m-2278 -2723 c54 -236 100 -434 103 -440 3 -10 -72 -13 -355 -13 l-360
0 -98 428 c-54 235 -100 433 -103 440 -3 9 72 12 355 12 l360 0 98 -427z
m3463 415 c-3 -7 -49 -205 -103 -440 l-98 -428 -360 0 c-283 0 -358 3 -355 13
3 6 49 204 103 440 l98 427 360 0 c283 0 358 -3 355 -12z m-1283 -413 c16 -15
25 -36 25 -55 0 -19 -9 -40 -25 -55 l-24 -25 -831 0 -831 0 -24 25 c-16 15
-25 36 -25 55 0 19 9 40 25 55 l24 25 831 0 831 0 24 -25z m-775 -695 l0 -400
-80 0 -80 0 0 400 0 400 80 0 80 0 0 -400z m-825 55 c21 -20 25 -34 25 -80 l0
-55 -600 0 -600 0 0 80 0 80 575 0 576 0 24 -25z m2665 -55 l0 -80 -600 0
-600 0 0 55 c0 46 4 60 25 80 l24 25 576 0 575 0 0 -80z m-3562 -252 c-3 -7
-43 -115 -89 -240 l-84 -228 -152 0 c-84 0 -153 3 -153 7 0 3 39 111 87 240
l88 233 153 0 c119 0 153 -3 150 -12z m520 -228 l60 -240 -289 0 c-159 0 -289
3 -289 7 0 3 39 111 87 240 l88 233 141 0 142 0 60 -240z m480 0 l60 -240
-158 0 -158 0 -60 240 -60 240 158 0 158 0 60 -240z m1600 0 l-60 -240 -158 0
-158 0 60 240 60 240 158 0 158 0 -60 -240z m595 7 c48 -129 87 -237 87 -240
0 -4 -130 -7 -289 -7 l-289 0 60 240 60 240 142 0 141 0 88 -233z m480 0 c48
-129 87 -237 87 -240 0 -4 -69 -7 -153 -7 l-152 0 -88 233 c-48 129 -87 237
-87 240 0 4 69 7 153 7 l152 0 88 -233z m-1873 -167 l0 -80 -160 0 -160 0 0
80 0 80 160 0 160 0 0 -80z"/>
</g>
</svg>
