<?xml version="1.0" standalone="no"?>
<!DOCTYPE svg PUBLIC "-//W3C//DTD SVG 20010904//EN"
 "http://www.w3.org/TR/2001/REC-SVG-20010904/DTD/svg10.dtd">
<svg version="1.0" xmlns="http://www.w3.org/2000/svg"
 width="512.000000pt" height="512.000000pt" viewBox="0 0 512.000000 512.000000"
 preserveAspectRatio="xMidYMid meet">

<g transform="translate(0.000000,512.000000) scale(0.100000,-0.100000)"
fill="#000000" stroke="none">
<path d="M1330 4461 c-37 -10 -90 -31 -120 -47 -67 -36 -158 -125 -193 -188
-33 -60 -67 -167 -67 -212 l0 -34 -153 0 -152 0 -37 30 c-69 57 -142 83 -232
83 -110 0 -182 -28 -257 -100 -240 -229 -80 -633 250 -633 99 0 180 30 247 92
l31 29 149 -3 149 -3 3 -1192 2 -1192 26 -20 c26 -20 39 -21 295 -21 l269 0 0
-164 c0 -177 8 -217 46 -235 18 -8 373 -11 1318 -11 1293 0 1293 0 1320 21
l26 20 2 1397 3 1397 109 3 c108 3 110 2 140 -26 67 -62 148 -92 247 -92 171
0 314 115 356 284 31 130 -11 262 -114 356 -72 66 -144 93 -249 93 -90 0 -163
-26 -232 -83 -36 -29 -39 -30 -149 -30 l-113 0 0 33 c0 45 -26 130 -61 198
-36 72 -130 166 -205 206 -126 66 -65 63 -1390 62 -1114 0 -1204 -1 -1264 -18z
m2014 -178 c-45 -59 -68 -105 -88 -173 -13 -46 -16 -135 -18 -536 -3 -462 -2
-483 16 -503 22 -25 73 -28 102 -7 17 13 19 31 24 213 l5 198 358 3 357 2 0
-1345 0 -1345 -1205 0 -1205 0 0 130 0 130 819 0 c813 0 818 0 845 21 l26 20
0 880 c0 866 0 879 -20 899 -27 27 -81 26 -106 -1 -18 -20 -19 -45 -22 -490
l-3 -469 -1064 0 -1065 0 0 1068 0 1067 23 56 c30 73 70 122 134 164 98 66 57
64 1140 64 l983 1 -36 -47z m489 32 c137 -36 250 -159 265 -291 l5 -44 -360 0
-360 0 8 48 c9 60 29 106 67 158 48 66 96 96 191 121 104 27 112 27 184 8z
m-3396 -380 c121 -36 186 -185 132 -300 -41 -86 -116 -129 -216 -123 -83 5
-137 42 -175 117 -48 94 -33 179 42 252 67 65 128 80 217 54z m4411 -14 c73
-37 122 -119 122 -203 0 -53 -48 -138 -98 -173 -39 -27 -51 -30 -121 -30 -68
0 -83 3 -119 28 -120 79 -137 240 -34 340 69 68 163 82 250 38z m-3900 -193
l3 -98 -108 0 -108 0 0 100 0 101 105 -3 105 -3 3 -97z m3437 2 l0 -100 -502
0 -503 0 0 93 c0 52 3 97 7 100 3 4 229 7 502 7 l496 0 0 -100z m-1155 -2070
l0 -90 -1065 0 -1065 0 0 90 0 90 1065 0 1065 0 0 -90z m0 -350 l0 -110 -1065
0 -1065 0 0 110 0 110 1065 0 1065 0 0 -110z"/>
</g>
</svg>
