<?xml version="1.0" standalone="no"?>
<!DOCTYPE svg PUBLIC "-//W3C//DTD SVG 20010904//EN"
 "http://www.w3.org/TR/2001/REC-SVG-20010904/DTD/svg10.dtd">
<svg version="1.0" xmlns="http://www.w3.org/2000/svg"
 width="512.000000pt" height="512.000000pt" viewBox="0 0 512.000000 512.000000"
 preserveAspectRatio="xMidYMid meet">

<g transform="translate(0.000000,512.000000) scale(0.100000,-0.100000)"
fill="#000000" stroke="none">
<path d="M265 4621 c-48 -22 -69 -44 -90 -94 -13 -32 -15 -196 -15 -1407 0
-1211 2 -1375 15 -1407 41 -98 81 -113 313 -113 l182 0 -55 -110 c-45 -89 -55
-119 -55 -160 l0 -50 -78 0 c-115 0 -174 -21 -238 -84 -66 -66 -84 -121 -84
-253 0 -86 2 -96 25 -118 l24 -25 856 0 855 0 0 80 0 80 -801 0 -802 0 6 46
c3 34 13 55 36 78 l31 31 765 3 765 2 0 80 0 80 -280 0 -280 0 0 50 c0 41 -10
71 -55 160 l-55 110 335 0 335 0 0 80 0 80 -797 2 -798 3 -3 78 -3 77 801 0
800 0 0 80 0 80 -800 0 -800 0 2 1198 3 1197 198 3 197 2 0 80 0 80 -207 0
c-180 0 -213 -3 -248 -19z m870 -3151 c37 -74 65 -143 65 -160 l0 -30 -240 0
-240 0 0 30 c0 17 28 86 65 160 l65 130 110 0 110 0 65 -130z"/>
<path d="M880 4560 l0 -80 1958 -2 1957 -3 3 -957 2 -958 80 0 80 0 0 968 c0
917 -1 969 -19 1007 -22 48 -44 69 -94 90 -32 13 -256 15 -2002 15 l-1965 0 0
-80z"/>
<path d="M505 4295 c-23 -22 -25 -32 -25 -120 l0 -95 80 0 80 0 0 40 0 40 40
0 40 0 0 80 0 80 -95 0 c-88 0 -98 -2 -120 -25z"/>
<path d="M4400 4240 l0 -80 40 0 40 0 0 -40 0 -40 80 0 80 0 0 95 c0 88 -2 98
-25 120 -22 23 -32 25 -120 25 l-95 0 0 -80z"/>
<path d="M2375 3434 c-234 -38 -453 -181 -569 -372 -20 -33 -36 -62 -36 -64 0
-6 139 -72 143 -67 1 2 19 29 39 60 79 122 205 217 348 261 59 18 98 23 185
23 87 0 126 -5 185 -23 143 -45 268 -138 346 -258 21 -32 40 -61 41 -63 5 -6
143 61 143 69 0 4 -18 35 -41 70 -105 163 -273 287 -461 340 -72 21 -257 34
-323 24z"/>
<path d="M2373 3106 c-135 -33 -252 -127 -317 -256 -52 -105 -50 -114 28 -128
35 -7 68 -12 74 -12 6 0 23 27 38 60 31 69 93 131 162 163 66 30 188 30 254 0
82 -37 146 -108 177 -195 12 -32 21 -33 103 -16 71 15 73 25 22 128 -102 202
-325 308 -541 256z"/>
<path d="M2410 2640 l0 -80 80 0 80 0 0 80 0 80 -80 0 -80 0 0 -80z"/>
<path d="M480 2385 c0 -88 2 -98 25 -120 22 -23 32 -25 120 -25 l95 0 0 80 0
80 -40 0 -40 0 0 40 0 40 -80 0 -80 0 0 -95z"/>
<path d="M2266 2384 c-34 -11 -64 -31 -102 -68 -88 -88 -84 -50 -84 -877 0
-823 -4 -786 85 -874 75 -76 121 -88 337 -83 159 3 177 5 218 27 61 32 97 67
128 126 l27 50 3 735 c3 846 7 806 -83 895 -73 74 -117 85 -319 84 -113 0
-176 -5 -210 -15z m416 -182 l33 -32 3 -415 3 -415 -48 33 c-72 51 -109 62
-198 61 -85 0 -130 -16 -203 -72 l-33 -25 3 416 3 415 25 27 c14 15 34 31 45
36 11 5 91 7 177 6 l158 -2 32 -33z m-139 -936 c103 -43 128 -177 48 -257 -64
-65 -153 -65 -220 -1 -128 121 9 326 172 258z m-193 -437 c36 -18 61 -23 125
-23 89 -1 126 10 198 61 l49 34 -4 -95 c-3 -93 -4 -97 -36 -128 l-32 -33 -170
0 -170 0 -32 33 c-32 31 -33 35 -37 129 l-3 97 33 -26 c19 -14 54 -36 79 -49z"/>
<path d="M2400 2000 l0 -80 80 0 80 0 0 80 0 80 -80 0 -80 0 0 -80z"/>
<path d="M2320 1680 l0 -80 160 0 160 0 0 80 0 80 -160 0 -160 0 0 -80z"/>
<path d="M3226 2384 c-34 -11 -64 -31 -102 -68 -88 -88 -84 -50 -84 -877 0
-823 -4 -786 85 -874 89 -90 49 -86 895 -83 l735 3 45 24 c109 57 152 131 158
274 l4 97 -80 0 -80 0 -3 -85 c-4 -80 -6 -86 -37 -117 l-32 -33 -730 0 -730 0
-32 33 -33 32 0 730 0 730 33 32 32 33 730 0 730 0 32 -33 33 -32 3 -565 2
-565 80 0 80 0 0 559 c0 646 2 630 -85 716 -88 89 -50 85 -879 84 -611 0 -728
-3 -770 -15z"/>
<path d="M3280 2080 l0 -80 80 0 80 0 0 80 0 80 -80 0 -80 0 0 -80z"/>
<path d="M4560 2080 l0 -80 80 0 80 0 0 80 0 80 -80 0 -80 0 0 -80z"/>
<path d="M3440 1680 l0 -80 120 0 120 0 0 -280 0 -280 80 0 80 0 0 280 0 280
120 0 120 0 0 80 0 80 -320 0 -320 0 0 -80z"/>
<path d="M4006 1444 c-33 -24 -61 -46 -64 -48 -2 -3 53 -82 123 -176 179 -239
171 -239 350 0 70 94 125 173 123 176 -3 2 -31 24 -64 48 l-58 44 -84 -112
c-46 -61 -87 -111 -92 -111 -5 0 -46 50 -92 111 l-84 112 -58 -44z"/>
<path d="M3280 800 l0 -80 80 0 80 0 0 80 0 80 -80 0 -80 0 0 -80z"/>
<path d="M4560 800 l0 -80 80 0 80 0 0 80 0 80 -80 0 -80 0 0 -80z"/>
</g>
</svg>
