<?xml version="1.0" standalone="no"?>
<!DOCTYPE svg PUBLIC "-//W3C//DTD SVG 20010904//EN"
 "http://www.w3.org/TR/2001/REC-SVG-20010904/DTD/svg10.dtd">
<svg version="1.0" xmlns="http://www.w3.org/2000/svg"
 width="512.000000pt" height="512.000000pt" viewBox="0 0 512.000000 512.000000"
 preserveAspectRatio="xMidYMid meet">

<g transform="translate(0.000000,512.000000) scale(0.100000,-0.100000)"
fill="#000000" stroke="none">
<path d="M2385 5104 c-254 -45 -508 -193 -690 -401 -79 -90 -102 -138 -91
-195 15 -79 74 -130 151 -132 63 -1 99 20 164 98 114 136 263 239 426 293 69
23 97 26 210 27 110 1 142 -3 205 -23 181 -56 321 -153 461 -319 50 -59 110
-88 163 -76 52 11 97 45 117 88 37 82 22 129 -80 244 -272 308 -670 461 -1036
396z"/>
<path d="M2412 4460 c-40 -11 -105 -36 -145 -57 -83 -44 -218 -167 -249 -227
-51 -100 26 -226 139 -226 57 0 74 10 155 86 89 86 150 114 248 114 98 0 159
-28 248 -114 81 -76 98 -86 155 -86 113 0 190 126 139 226 -31 60 -166 183
-249 227 -142 74 -297 94 -441 57z"/>
<path d="M300 4259 c-112 -22 -217 -107 -268 -217 l-27 -57 0 -1425 0 -1425
33 -67 c40 -82 119 -157 200 -190 l57 -23 1052 -3 1053 -3 0 -264 0 -265 -392
0 c-388 0 -393 -1 -432 -23 -109 -61 -106 -221 5 -277 37 -19 63 -20 979 -20
916 0 942 1 979 20 113 57 113 223 0 280 -36 19 -60 20 -429 20 l-390 0 0 265
0 264 1053 3 1052 3 57 23 c81 33 160 108 200 190 l33 67 0 1425 0 1425 -33
67 c-40 82 -119 157 -200 190 -57 23 -60 23 -492 23 -421 0 -436 -1 -470 -21
-52 -30 -82 -88 -77 -147 5 -54 27 -91 77 -124 33 -23 35 -23 434 -23 347 0
405 -2 424 -16 l22 -15 0 -1359 0 -1359 -22 -15 c-20 -14 -250 -16 -2218 -16
-1968 0 -2198 2 -2218 16 l-22 15 0 1359 0 1359 22 15 c19 14 77 16 424 16
399 0 401 0 434 23 50 33 72 70 77 124 5 59 -25 117 -77 147 -34 20 -51 21
-445 23 -225 0 -430 -3 -455 -8z"/>
<path d="M2480 3824 c-46 -20 -87 -60 -112 -108 -30 -59 -22 -151 18 -208 42
-60 104 -93 175 -92 182 2 276 215 156 351 -59 67 -159 91 -237 57z"/>
<path d="M1576 3177 c-109 -61 -106 -221 5 -277 27 -14 58 -20 108 -20 l70 0
3 -429 c3 -416 4 -430 24 -457 39 -53 71 -69 134 -69 63 0 95 16 134 69 20 27
21 41 24 457 l3 429 70 0 c85 0 137 23 170 76 48 78 19 183 -62 224 -36 19
-59 20 -341 20 -295 0 -304 -1 -342 -23z"/>
<path d="M2814 3186 c-17 -8 -44 -30 -59 -50 -53 -69 -53 -65 131 -622 158
-474 172 -511 206 -546 64 -64 157 -64 218 1 32 34 52 88 204 545 184 557 184
553 131 622 -60 78 -165 85 -237 17 -22 -21 -46 -83 -115 -290 -48 -145 -90
-263 -93 -263 -3 0 -46 120 -95 267 -85 252 -92 268 -127 296 -44 35 -115 45
-164 23z"/>
</g>
</svg>
