<?xml version="1.0" standalone="no"?>
<!DOCTYPE svg PUBLIC "-//W3C//DTD SVG 20010904//EN"
 "http://www.w3.org/TR/2001/REC-SVG-20010904/DTD/svg10.dtd">
<svg version="1.0" xmlns="http://www.w3.org/2000/svg"
 width="512.000000pt" height="512.000000pt" viewBox="0 0 512.000000 512.000000"
 preserveAspectRatio="xMidYMid meet">

<g transform="translate(0.000000,512.000000) scale(0.100000,-0.100000)"
fill="#000000" stroke="none">
<path d="M1987 4740 c-190 -18 -383 -73 -547 -155 -170 -85 -286 -172 -425
-316 -161 -168 -269 -348 -344 -576 -68 -206 -74 -255 -78 -734 -6 -536 6
-665 78 -884 123 -370 396 -691 735 -867 l64 -33 2 -384 3 -384 27 -20 c19
-14 34 -18 54 -13 18 5 136 117 346 331 l319 324 492 4 c463 4 498 5 592 26
545 121 970 496 1141 1006 73 218 76 249 81 748 6 550 -5 669 -78 892 -155
469 -556 852 -1030 984 -186 52 -209 53 -794 56 -302 2 -590 -1 -638 -5z
m1023 -619 c100 -26 242 -91 331 -152 137 -92 286 -271 354 -424 52 -119 76
-222 82 -356 6 -133 -8 -273 -32 -320 -24 -46 -78 -53 -115 -14 -21 22 -22 29
-14 82 16 105 11 320 -10 398 -77 290 -293 522 -574 615 -77 26 -125 34 -232
42 -74 5 -142 13 -150 17 -8 4 -21 21 -29 36 -12 25 -12 32 0 54 26 45 53 52
184 48 79 -3 149 -12 205 -26z m-1101 -241 c44 -26 383 -375 406 -420 60 -116
4 -250 -131 -310 -73 -33 -118 -84 -134 -151 -44 -180 216 -527 499 -667 64
-31 85 -37 141 -37 95 0 151 36 198 125 19 36 44 76 55 88 60 65 174 85 253
44 50 -25 390 -375 418 -430 26 -51 25 -135 -2 -187 -24 -47 -283 -306 -328
-328 -17 -9 -61 -21 -98 -28 -453 -78 -1366 639 -1711 1344 -148 302 -174 529
-76 670 35 51 256 269 290 287 69 36 156 36 220 0z m1036 -46 c72 -19 183 -73
245 -119 137 -102 239 -257 280 -427 21 -88 26 -210 10 -252 -13 -34 -54 -60
-84 -52 -47 12 -56 31 -56 124 0 109 -21 196 -66 282 -72 138 -182 231 -334
283 -71 25 -102 30 -186 31 -117 1 -144 15 -144 71 0 40 17 63 55 75 41 13
207 4 280 -16z m-53 -295 c178 -60 294 -211 300 -391 2 -59 -21 -88 -67 -88
-49 0 -65 19 -81 93 -7 37 -23 85 -33 106 -42 82 -156 151 -249 151 -71 0
-110 82 -62 130 27 27 111 27 192 -1z"/>
</g>
</svg>
